{
    "asset" : {
        "generator" : "Khronos glTF Blender I/O v1.6.16",
        "version" : "2.0"
    },
    "scene" : 0,
    "scenes" : [
        {
            "name" : "Scene",
            "nodes" : [
                0
            ]
        }
    ],
    "nodes" : [
        {
            "mesh" : 0,
            "name" : "bridge",
            "rotation" : [
                0.7071068286895752,
                0,
                0,
                0.7071068286895752
            ],
            "scale" : [
                0.009999999776482582,
                0.009999999776482582,
                0.009999999776482582
            ],
            "translation" : [
                -0.15610992908477783,
                0.13878022134304047,
                -0.04389435052871704
            ]
        }
    ],
    "materials" : [
        {
            "doubleSided" : true,
            "name" : "Legno03_Mat",
            "pbrMetallicRoughness" : {
                "baseColorFactor" : [
                    0.15700000524520874,
                    0.12123989313840866,
                    0.0905890092253685,
                    1
                ],
                "metallicFactor" : 0,
                "roughnessFactor" : 0.5527864098548889
            }
        },
        {
            "doubleSided" : true,
            "name" : "Legno01_Mat",
            "pbrMetallicRoughness" : {
                "baseColorFactor" : [
                    0.23800000548362732,
                    0.15777572989463806,
                    0.09758000820875168,
                    1
                ],
                "metallicFactor" : 0,
                "roughnessFactor" : 0.5527864098548889
            }
        },
        {
            "doubleSided" : true,
            "name" : "Legno02_Mat",
            "pbrMetallicRoughness" : {
                "baseColorFactor" : [
                    0.421999990940094,
                    0.2647548019886017,
                    0.12997600436210632,
                    1
                ],
                "metallicFactor" : 0,
                "roughnessFactor" : 0.5527864098548889
            }
        }
    ],
    "meshes" : [
        {
            "name" : "Mesh.023",
            "primitives" : [
                {
                    "attributes" : {
                        "POSITION" : 0,
                        "NORMAL" : 1,
                        "TEXCOORD_0" : 2
                    },
                    "indices" : 3,
                    "material" : 0
                },
                {
                    "attributes" : {
                        "POSITION" : 4,
                        "NORMAL" : 5,
                        "TEXCOORD_0" : 6
                    },
                    "indices" : 7,
                    "material" : 1
                },
                {
                    "attributes" : {
                        "POSITION" : 8,
                        "NORMAL" : 9,
                        "TEXCOORD_0" : 10
                    },
                    "indices" : 11,
                    "material" : 2
                }
            ]
        }
    ],
    "accessors" : [
        {
            "bufferView" : 0,
            "componentType" : 5126,
            "count" : 384,
            "max" : [
                432.65771484375,
                290.133544921875,
                162.08872985839844
            ],
            "min" : [
                -437.8389892578125,
                -257.406005859375,
                13.647148132324219
            ],
            "type" : "VEC3"
        },
        {
            "bufferView" : 1,
            "componentType" : 5126,
            "count" : 384,
            "type" : "VEC3"
        },
        {
            "bufferView" : 2,
            "componentType" : 5126,
            "count" : 384,
            "type" : "VEC2"
        },
        {
            "bufferView" : 3,
            "componentType" : 5123,
            "count" : 576,
            "type" : "SCALAR"
        },
        {
            "bufferView" : 4,
            "componentType" : 5126,
            "count" : 408,
            "max" : [
                467.62872314453125,
                368.3602294921875,
                6.909704208374023
            ],
            "min" : [
                -463.19915771484375,
                -347.71630859375,
                2.535719156265259
            ],
            "type" : "VEC3"
        },
        {
            "bufferView" : 5,
            "componentType" : 5126,
            "count" : 408,
            "type" : "VEC3"
        },
        {
            "bufferView" : 6,
            "componentType" : 5126,
            "count" : 408,
            "type" : "VEC2"
        },
        {
            "bufferView" : 7,
            "componentType" : 5123,
            "count" : 612,
            "type" : "SCALAR"
        },
        {
            "bufferView" : 8,
            "componentType" : 5126,
            "count" : 108,
            "max" : [
                437.84185791015625,
                341.4501953125,
                21.27362060546875
            ],
            "min" : [
                -442.24041748046875,
                -367.57568359375,
                6.335272312164307
            ],
            "type" : "VEC3"
        },
        {
            "bufferView" : 9,
            "componentType" : 5126,
            "count" : 108,
            "type" : "VEC3"
        },
        {
            "bufferView" : 10,
            "componentType" : 5126,
            "count" : 108,
            "type" : "VEC2"
        },
        {
            "bufferView" : 11,
            "componentType" : 5123,
            "count" : 180,
            "type" : "SCALAR"
        }
    ],
    "bufferViews" : [
        {
            "buffer" : 0,
            "byteLength" : 4608,
            "byteOffset" : 0
        },
        {
            "buffer" : 0,
            "byteLength" : 4608,
            "byteOffset" : 4608
        },
        {
            "buffer" : 0,
            "byteLength" : 3072,
            "byteOffset" : 9216
        },
        {
            "buffer" : 0,
            "byteLength" : 1152,
            "byteOffset" : 12288
        },
        {
            "buffer" : 0,
            "byteLength" : 4896,
            "byteOffset" : 13440
        },
        {
            "buffer" : 0,
            "byteLength" : 4896,
            "byteOffset" : 18336
        },
        {
            "buffer" : 0,
            "byteLength" : 3264,
            "byteOffset" : 23232
        },
        {
            "buffer" : 0,
            "byteLength" : 1224,
            "byteOffset" : 26496
        },
        {
            "buffer" : 0,
            "byteLength" : 1296,
            "byteOffset" : 27720
        },
        {
            "buffer" : 0,
            "byteLength" : 1296,
            "byteOffset" : 29016
        },
        {
            "buffer" : 0,
            "byteLength" : 864,
            "byteOffset" : 30312
        },
        {
            "buffer" : 0,
            "byteLength" : 360,
            "byteOffset" : 31176
        }
    ],
    "buffers" : [
        {
            "byteLength" : 31536,
            "uri" : "data:application/octet-stream;base64,"
        }
    ]
}
