{
    "asset" : {
        "generator" : "Khronos glTF Blender I/O v1.6.16",
        "version" : "2.0"
    },
    "scene" : 0,
    "scenes" : [
        {
            "name" : "Scene",
            "nodes" : [
                0
            ]
        }
    ],
    "nodes" : [
        {
            "mesh" : 0,
            "name" : "gate",
            "rotation" : [
                0.7071068286895752,
                0,
                0,
                0.7071068286895752
            ],
            "scale" : [
                0.009999999776482582,
                0.009999999776482582,
                0.009999999776482582
            ],
            "translation" : [
                -0.15610992908477783,
                0.13878022134304047,
                -0.04389435052871704
            ]
        }
    ],
    "materials" : [
        {
            "doubleSided" : true,
            "name" : "Mura_01_TileMat",
            "pbrMetallicRoughness" : {
                "baseColorTexture" : {
                    "index" : 0
                },
                "metallicFactor" : 0,
                "roughnessFactor" : 0.5527864098548889
            }
        },
        {
            "doubleSided" : true,
            "name" : "RocciaMura_01_Mat",
            "pbrMetallicRoughness" : {
                "baseColorFactor" : [
                    0.2471817582845688,
                    0.2471817582845688,
                    0.2471817582845688,
                    1
                ],
                "metallicFactor" : 0,
                "roughnessFactor" : 0.5527864098548889
            }
        },
        {
            "doubleSided" : true,
            "name" : "RocciaMura_05_Mat",
            "pbrMetallicRoughness" : {
                "baseColorFactor" : [
                    0.3240000009536743,
                    0.3240000009536743,
                    0.3240000009536743,
                    1
                ],
                "metallicFactor" : 0,
                "roughnessFactor" : 0.5527864098548889
            }
        },
        {
            "doubleSided" : true,
            "name" : "Passerella_Legno_TopMura_TileMura",
            "pbrMetallicRoughness" : {
                "baseColorTexture" : {
                    "index" : 1
                },
                "metallicFactor" : 0,
                "roughnessFactor" : 0.5527864098548889
            }
        },
        {
            "doubleSided" : true,
            "name" : "Zone_Ombra_Mat",
            "pbrMetallicRoughness" : {
                "baseColorFactor" : [
                    0.02489626593887806,
                    0.02489626593887806,
                    0.02489626593887806,
                    1
                ],
                "metallicFactor" : 0,
                "roughnessFactor" : 0.5527864098548889
            }
        },
        {
            "doubleSided" : true,
            "name" : "RocciaMura_02_Mat",
            "pbrMetallicRoughness" : {
                "baseColorFactor" : [
                    0.21138212084770203,
                    0.21138212084770203,
                    0.21138212084770203,
                    1
                ],
                "metallicFactor" : 0,
                "roughnessFactor" : 0.5527864098548889
            }
        },
        {
            "doubleSided" : true,
            "name" : "RocciaMura_04_Mat",
            "pbrMetallicRoughness" : {
                "baseColorFactor" : [
                    0.14342418313026428,
                    0.14342418313026428,
                    0.14342418313026428,
                    1
                ],
                "metallicFactor" : 0,
                "roughnessFactor" : 0.5527864098548889
            }
        },
        {
            "doubleSided" : true,
            "name" : "Ferro02_Mat",
            "pbrMetallicRoughness" : {
                "baseColorFactor" : [
                    0.17399999499320984,
                    0.17399999499320984,
                    0.17399999499320984,
                    1
                ],
                "metallicFactor" : 0,
                "roughnessFactor" : 0.5527864098548889
            }
        },
        {
            "doubleSided" : true,
            "name" : "RocciaMura_03_Mat",
            "pbrMetallicRoughness" : {
                "baseColorFactor" : [
                    0.2246226817369461,
                    0.2246226817369461,
                    0.2246226817369461,
                    1
                ],
                "metallicFactor" : 0,
                "roughnessFactor" : 0.5527864098548889
            }
        },
        {
            "doubleSided" : true,
            "name" : "Ferro01_Mat",
            "pbrMetallicRoughness" : {
                "baseColorFactor" : [
                    0.21299999952316284,
                    0.21299999952316284,
                    0.21299999952316284,
                    1
                ],
                "metallicFactor" : 0,
                "roughnessFactor" : 0.5527864098548889
            }
        },
        {
            "doubleSided" : true,
            "name" : "Stendardi_Mat1",
            "pbrMetallicRoughness" : {
                "baseColorTexture" : {
                    "index" : 2
                },
                "metallicFactor" : 0,
                "roughnessFactor" : 0.5527864098548889
            }
        }
    ],
    "meshes" : [
        {
            "name" : "Mesh.022",
            "primitives" : [
                {
                    "attributes" : {
                        "POSITION" : 0,
                        "NORMAL" : 1,
                        "TEXCOORD_0" : 2
                    },
                    "indices" : 3,
                    "material" : 0
                },
                {
                    "attributes" : {
                        "POSITION" : 4,
                        "NORMAL" : 5,
                        "TEXCOORD_0" : 6
                    },
                    "indices" : 7,
                    "material" : 1
                },
                {
                    "attributes" : {
                        "POSITION" : 8,
                        "NORMAL" : 9,
                        "TEXCOORD_0" : 10
                    },
                    "indices" : 11,
                    "material" : 2
                },
                {
                    "attributes" : {
                        "POSITION" : 12,
                        "NORMAL" : 13,
                        "TEXCOORD_0" : 14
                    },
                    "indices" : 15,
                    "material" : 3
                },
                {
                    "attributes" : {
                        "POSITION" : 16,
                        "NORMAL" : 17,
                        "TEXCOORD_0" : 18
                    },
                    "indices" : 19,
                    "material" : 4
                },
                {
                    "attributes" : {
                        "POSITION" : 20,
                        "NORMAL" : 21,
                        "TEXCOORD_0" : 22
                    },
                    "indices" : 23,
                    "material" : 5
                },
                {
                    "attributes" : {
                        "POSITION" : 24,
                        "NORMAL" : 25,
                        "TEXCOORD_0" : 26
                    },
                    "indices" : 27,
                    "material" : 6
                },
                {
                    "attributes" : {
                        "POSITION" : 28,
                        "NORMAL" : 29,
                        "TEXCOORD_0" : 30
                    },
                    "indices" : 31,
                    "material" : 7
                },
                {
                    "attributes" : {
                        "POSITION" : 32,
                        "NORMAL" : 33,
                        "TEXCOORD_0" : 34
                    },
                    "indices" : 35,
                    "material" : 8
                },
                {
                    "attributes" : {
                        "POSITION" : 36,
                        "NORMAL" : 37,
                        "TEXCOORD_0" : 38
                    },
                    "indices" : 39,
                    "material" : 9
                },
                {
                    "attributes" : {
                        "POSITION" : 40,
                        "NORMAL" : 41,
                        "TEXCOORD_0" : 42
                    },
                    "indices" : 43,
                    "material" : 10
                }
            ]
        }
    ],
    "textures" : [
        {
            "sampler" : 0,
            "source" : 0
        },
        {
            "sampler" : 0,
            "source" : 1
        },
        {
            "sampler" : 0,
            "source" : 2
        }
    ],
    "images" : [
        {
            "bufferView" : 4,
            "mimeType" : "image/jpeg",
            "name" : "muro_02"
        },
        {
            "bufferView" : 17,
            "mimeType" : "image/jpeg",
            "name" : "assi_strisce"
        },
        {
            "bufferView" : 46,
            "mimeType" : "image/jpeg",
            "name" : "stendardo_04"
        }
    ],
    "accessors" : [
        {
            "bufferView" : 0,
            "componentType" : 5126,
            "count" : 84,
            "max" : [
                2950.9091796875,
                618.8720703125,
                0.0002405465202173218
            ],
            "min" : [
                -2782.416015625,
                -313.4482421875,
                -1378.4642333984375
            ],
            "type" : "VEC3"
        },
        {
            "bufferView" : 1,
            "componentType" : 5126,
            "count" : 84,
            "type" : "VEC3"
        },
        {
            "bufferView" : 2,
            "componentType" : 5126,
            "count" : 84,
            "type" : "VEC2"
        },
        {
            "bufferView" : 3,
            "componentType" : 5123,
            "count" : 198,
            "type" : "SCALAR"
        },
        {
            "bufferView" : 5,
            "componentType" : 5126,
            "count" : 960,
            "max" : [
                3058.9990234375,
                662.3779296875,
                -926.6423950195312
            ],
            "min" : [
                -2890.50390625,
                -354.0498046875,
                -1483.3349609375
            ],
            "type" : "VEC3"
        },
        {
            "bufferView" : 6,
            "componentType" : 5126,
            "count" : 960,
            "type" : "VEC3"
        },
        {
            "bufferView" : 7,
            "componentType" : 5126,
            "count" : 960,
            "type" : "VEC2"
        },
        {
            "bufferView" : 8,
            "componentType" : 5123,
            "count" : 1800,
            "type" : "SCALAR"
        },
        {
            "bufferView" : 9,
            "componentType" : 5126,
            "count" : 2727,
            "max" : [
                2855.08056640625,
                639.1650390625,
                -1138.892578125
            ],
            "min" : [
                -2686.58740234375,
                -330.8388671875,
                -1444.2464599609375
            ],
            "type" : "VEC3"
        },
        {
            "bufferView" : 10,
            "componentType" : 5126,
            "count" : 2727,
            "type" : "VEC3"
        },
        {
            "bufferView" : 11,
            "componentType" : 5126,
            "count" : 2727,
            "type" : "VEC2"
        },
        {
            "bufferView" : 12,
            "componentType" : 5123,
            "count" : 5136,
            "type" : "SCALAR"
        },
        {
            "bufferView" : 13,
            "componentType" : 5126,
            "count" : 28,
            "max" : [
                2950.9091796875,
                618.8720703125,
                -1203.0391845703125
            ],
            "min" : [
                -2782.416015625,
                -313.4482421875,
                -1378.4642333984375
            ],
            "type" : "VEC3"
        },
        {
            "bufferView" : 14,
            "componentType" : 5126,
            "count" : 28,
            "type" : "VEC3"
        },
        {
            "bufferView" : 15,
            "componentType" : 5126,
            "count" : 28,
            "type" : "VEC2"
        },
        {
            "bufferView" : 16,
            "componentType" : 5123,
            "count" : 42,
            "type" : "SCALAR"
        },
        {
            "bufferView" : 18,
            "componentType" : 5126,
            "count" : 26,
            "max" : [
                2137.42822265625,
                445.7353515625,
                1.647557020187378
            ],
            "min" : [
                -2566.60009765625,
                445.7353515625,
                -109.34261322021484
            ],
            "type" : "VEC3"
        },
        {
            "bufferView" : 19,
            "componentType" : 5126,
            "count" : 26,
            "type" : "VEC3"
        },
        {
            "bufferView" : 20,
            "componentType" : 5126,
            "count" : 26,
            "type" : "VEC2"
        },
        {
            "bufferView" : 21,
            "componentType" : 5123,
            "count" : 54,
            "type" : "SCALAR"
        },
        {
            "bufferView" : 22,
            "componentType" : 5126,
            "count" : 283,
            "max" : [
                2163.869140625,
                493.2138671875,
                1.647557020187378
            ],
            "min" : [
                -2593.04052734375,
                -1.9404296875,
                -1430.662353515625
            ],
            "type" : "VEC3"
        },
        {
            "bufferView" : 23,
            "componentType" : 5126,
            "count" : 283,
            "type" : "VEC3"
        },
        {
            "bufferView" : 24,
            "componentType" : 5126,
            "count" : 283,
            "type" : "VEC2"
        },
        {
            "bufferView" : 25,
            "componentType" : 5123,
            "count" : 576,
            "type" : "SCALAR"
        },
        {
            "bufferView" : 26,
            "componentType" : 5126,
            "count" : 1448,
            "max" : [
                3003.439453125,
                499.7724609375,
                0.0004389107634779066
            ],
            "min" : [
                -2827.1201171875,
                -195.1904296875,
                -1033.83251953125
            ],
            "type" : "VEC3"
        },
        {
            "bufferView" : 27,
            "componentType" : 5126,
            "count" : 1448,
            "type" : "VEC3"
        },
        {
            "bufferView" : 28,
            "componentType" : 5126,
            "count" : 1448,
            "type" : "VEC2"
        },
        {
            "bufferView" : 29,
            "componentType" : 5123,
            "count" : 2220,
            "type" : "SCALAR"
        },
        {
            "bufferView" : 30,
            "componentType" : 5126,
            "count" : 1032,
            "max" : [
                541.544677734375,
                467.6298828125,
                -543.1685791015625
            ],
            "min" : [
                -364.8193359375,
                450.6123046875,
                -1095.8011474609375
            ],
            "type" : "VEC3"
        },
        {
            "bufferView" : 31,
            "componentType" : 5126,
            "count" : 1032,
            "type" : "VEC3"
        },
        {
            "bufferView" : 32,
            "componentType" : 5126,
            "count" : 1032,
            "type" : "VEC2"
        },
        {
            "bufferView" : 33,
            "componentType" : 5123,
            "count" : 1368,
            "type" : "SCALAR"
        },
        {
            "bufferView" : 34,
            "componentType" : 5126,
            "count" : 1446,
            "max" : [
                3012.22119140625,
                442.6025390625,
                0.0002405465202173218
            ],
            "min" : [
                -2835.90087890625,
                -195.5791015625,
                -956.2417602539062
            ],
            "type" : "VEC3"
        },
        {
            "bufferView" : 35,
            "componentType" : 5126,
            "count" : 1446,
            "type" : "VEC3"
        },
        {
            "bufferView" : 36,
            "componentType" : 5126,
            "count" : 1446,
            "type" : "VEC2"
        },
        {
            "bufferView" : 37,
            "componentType" : 5123,
            "count" : 2172,
            "type" : "SCALAR"
        },
        {
            "bufferView" : 38,
            "componentType" : 5126,
            "count" : 336,
            "max" : [
                2124.77197265625,
                625.1240234375,
                1.647618055343628
            ],
            "min" : [
                -2552.10498046875,
                469.2548828125,
                -1077.690185546875
            ],
            "type" : "VEC3"
        },
        {
            "bufferView" : 39,
            "componentType" : 5126,
            "count" : 336,
            "type" : "VEC3"
        },
        {
            "bufferView" : 40,
            "componentType" : 5126,
            "count" : 336,
            "type" : "VEC2"
        },
        {
            "bufferView" : 41,
            "componentType" : 5123,
            "count" : 504,
            "type" : "SCALAR"
        },
        {
            "bufferView" : 42,
            "componentType" : 5126,
            "count" : 36,
            "max" : [
                884.0406494140625,
                623.0810546875,
                -739.6192626953125
            ],
            "min" : [
                -733.9124755859375,
                623.0810546875,
                -1075.28369140625
            ],
            "type" : "VEC3"
        },
        {
            "bufferView" : 43,
            "componentType" : 5126,
            "count" : 36,
            "type" : "VEC3"
        },
        {
            "bufferView" : 44,
            "componentType" : 5126,
            "count" : 36,
            "type" : "VEC2"
        },
        {
            "bufferView" : 45,
            "componentType" : 5123,
            "count" : 96,
            "type" : "SCALAR"
        }
    ],
    "bufferViews" : [
        {
            "buffer" : 0,
            "byteLength" : 1008,
            "byteOffset" : 0
        },
        {
            "buffer" : 0,
            "byteLength" : 1008,
            "byteOffset" : 1008
        },
        {
            "buffer" : 0,
            "byteLength" : 672,
            "byteOffset" : 2016
        },
        {
            "buffer" : 0,
            "byteLength" : 396,
            "byteOffset" : 2688
        },
        {
            "buffer" : 0,
            "byteLength" : 95606,
            "byteOffset" : 3084
        },
        {
            "buffer" : 0,
            "byteLength" : 11520,
            "byteOffset" : 98692
        },
        {
            "buffer" : 0,
            "byteLength" : 11520,
            "byteOffset" : 110212
        },
        {
            "buffer" : 0,
            "byteLength" : 7680,
            "byteOffset" : 121732
        },
        {
            "buffer" : 0,
            "byteLength" : 3600,
            "byteOffset" : 129412
        },
        {
            "buffer" : 0,
            "byteLength" : 32724,
            "byteOffset" : 133012
        },
        {
            "buffer" : 0,
            "byteLength" : 32724,
            "byteOffset" : 165736
        },
        {
            "buffer" : 0,
            "byteLength" : 21816,
            "byteOffset" : 198460
        },
        {
            "buffer" : 0,
            "byteLength" : 10272,
            "byteOffset" : 220276
        },
        {
            "buffer" : 0,
            "byteLength" : 336,
            "byteOffset" : 230548
        },
        {
            "buffer" : 0,
            "byteLength" : 336,
            "byteOffset" : 230884
        },
        {
            "buffer" : 0,
            "byteLength" : 224,
            "byteOffset" : 231220
        },
        {
            "buffer" : 0,
            "byteLength" : 84,
            "byteOffset" : 231444
        },
        {
            "buffer" : 0,
            "byteLength" : 238102,
            "byteOffset" : 231528
        },
        {
            "buffer" : 0,
            "byteLength" : 312,
            "byteOffset" : 469632
        },
        {
            "buffer" : 0,
            "byteLength" : 312,
            "byteOffset" : 469944
        },
        {
            "buffer" : 0,
            "byteLength" : 208,
            "byteOffset" : 470256
        },
        {
            "buffer" : 0,
            "byteLength" : 108,
            "byteOffset" : 470464
        },
        {
            "buffer" : 0,
            "byteLength" : 3396,
            "byteOffset" : 470572
        },
        {
            "buffer" : 0,
            "byteLength" : 3396,
            "byteOffset" : 473968
        },
        {
            "buffer" : 0,
            "byteLength" : 2264,
            "byteOffset" : 477364
        },
        {
            "buffer" : 0,
            "byteLength" : 1152,
            "byteOffset" : 479628
        },
        {
            "buffer" : 0,
            "byteLength" : 17376,
            "byteOffset" : 480780
        },
        {
            "buffer" : 0,
            "byteLength" : 17376,
            "byteOffset" : 498156
        },
        {
            "buffer" : 0,
            "byteLength" : 11584,
            "byteOffset" : 515532
        },
        {
            "buffer" : 0,
            "byteLength" : 4440,
            "byteOffset" : 527116
        },
        {
            "buffer" : 0,
            "byteLength" : 12384,
            "byteOffset" : 531556
        },
        {
            "buffer" : 0,
            "byteLength" : 12384,
            "byteOffset" : 543940
        },
        {
            "buffer" : 0,
            "byteLength" : 8256,
            "byteOffset" : 556324
        },
        {
            "buffer" : 0,
            "byteLength" : 2736,
            "byteOffset" : 564580
        },
        {
            "buffer" : 0,
            "byteLength" : 17352,
            "byteOffset" : 567316
        },
        {
            "buffer" : 0,
            "byteLength" : 17352,
            "byteOffset" : 584668
        },
        {
            "buffer" : 0,
            "byteLength" : 11568,
            "byteOffset" : 602020
        },
        {
            "buffer" : 0,
            "byteLength" : 4344,
            "byteOffset" : 613588
        },
        {
            "buffer" : 0,
            "byteLength" : 4032,
            "byteOffset" : 617932
        },
        {
            "buffer" : 0,
            "byteLength" : 4032,
            "byteOffset" : 621964
        },
        {
            "buffer" : 0,
            "byteLength" : 2688,
            "byteOffset" : 625996
        },
        {
            "buffer" : 0,
            "byteLength" : 1008,
            "byteOffset" : 628684
        },
        {
            "buffer" : 0,
            "byteLength" : 432,
            "byteOffset" : 629692
        },
        {
            "buffer" : 0,
            "byteLength" : 432,
            "byteOffset" : 630124
        },
        {
            "buffer" : 0,
            "byteLength" : 288,
            "byteOffset" : 630556
        },
        {
            "buffer" : 0,
            "byteLength" : 192,
            "byteOffset" : 630844
        },
        {
            "buffer" : 0,
            "byteLength" : 228666,
            "byteOffset" : 631036
        }
    ],
    "samplers" : [
        {
            "magFilter" : 9729,
            "minFilter" : 9987
        }
    ],
    "buffers" : [
        {
            "byteLength" : 859704,
            "uri" : "data:application/octet-stream;base64,"
        }
    ]
}
