{
    "asset" : {
        "generator" : "Khronos glTF Blender I/O v1.6.16",
        "version" : "2.0"
    },
    "scene" : 0,
    "scenes" : [
        {
            "name" : "Scene",
            "nodes" : [
                0
            ]
        }
    ],
    "nodes" : [
        {
            "mesh" : 0,
            "name" : "rookTop",
            "rotation" : [
                0.7071068286895752,
                0,
                0,
                0.7071068286895752
            ],
            "scale" : [
                0.009999999776482582,
                0.009999999776482582,
                0.009999999776482582
            ],
            "translation" : [
                2.384185791015625e-06,
                0,
                0
            ]
        }
    ],
    "materials" : [
        {
            "doubleSided" : true,
            "name" : "Mura_01_TileMat",
            "pbrMetallicRoughness" : {
                "baseColorTexture" : {
                    "index" : 0
                },
                "metallicFactor" : 0,
                "roughnessFactor" : 0.5527864098548889
            }
        },
        {
            "doubleSided" : true,
            "name" : "RocciaMura_01_Mat",
            "pbrMetallicRoughness" : {
                "baseColorFactor" : [
                    0.2471817582845688,
                    0.2471817582845688,
                    0.2471817582845688,
                    1
                ],
                "metallicFactor" : 0,
                "roughnessFactor" : 0.5527864098548889
            }
        },
        {
            "doubleSided" : true,
            "name" : "Passerella_Legno_TopMura_TileMura",
            "pbrMetallicRoughness" : {
                "baseColorTexture" : {
                    "index" : 1
                },
                "metallicFactor" : 0,
                "roughnessFactor" : 0.5527864098548889
            }
        },
        {
            "doubleSided" : true,
            "name" : "RocciaMura_02_Mat",
            "pbrMetallicRoughness" : {
                "baseColorFactor" : [
                    0.21138212084770203,
                    0.21138212084770203,
                    0.21138212084770203,
                    1
                ],
                "metallicFactor" : 0,
                "roughnessFactor" : 0.5527864098548889
            }
        }
    ],
    "meshes" : [
        {
            "name" : "Mesh.006",
            "primitives" : [
                {
                    "attributes" : {
                        "POSITION" : 0,
                        "NORMAL" : 1,
                        "TEXCOORD_0" : 2
                    },
                    "indices" : 3,
                    "material" : 0
                },
                {
                    "attributes" : {
                        "POSITION" : 4,
                        "NORMAL" : 5,
                        "TEXCOORD_0" : 6
                    },
                    "indices" : 7,
                    "material" : 1
                },
                {
                    "attributes" : {
                        "POSITION" : 8,
                        "NORMAL" : 9,
                        "TEXCOORD_0" : 10
                    },
                    "indices" : 11,
                    "material" : 2
                },
                {
                    "attributes" : {
                        "POSITION" : 12,
                        "NORMAL" : 13,
                        "TEXCOORD_0" : 14
                    },
                    "indices" : 15,
                    "material" : 3
                }
            ]
        }
    ],
    "textures" : [
        {
            "sampler" : 0,
            "source" : 0
        },
        {
            "sampler" : 0,
            "source" : 1
        }
    ],
    "images" : [
        {
            "bufferView" : 4,
            "mimeType" : "image/jpeg",
            "name" : "muro_02"
        },
        {
            "bufferView" : 13,
            "mimeType" : "image/jpeg",
            "name" : "assi_strisce"
        }
    ],
    "accessors" : [
        {
            "bufferView" : 0,
            "componentType" : 5126,
            "count" : 34,
            "max" : [
                378.71514892578125,
                382.62225341796875,
                -7.261962890625
            ],
            "min" : [
                -394.90350341796875,
                -390.99688720703125,
                -342.15869140625
            ],
            "type" : "VEC3"
        },
        {
            "bufferView" : 1,
            "componentType" : 5126,
            "count" : 34,
            "type" : "VEC3"
        },
        {
            "bufferView" : 2,
            "componentType" : 5126,
            "count" : 34,
            "type" : "VEC2"
        },
        {
            "bufferView" : 3,
            "componentType" : 5123,
            "count" : 96,
            "type" : "SCALAR"
        },
        {
            "bufferView" : 5,
            "componentType" : 5126,
            "count" : 384,
            "max" : [
                400.17901611328125,
                404.08905029296875,
                -143.35205078125
            ],
            "min" : [
                -416.36785888671875,
                -412.45782470703125,
                -195.296142578125
            ],
            "type" : "VEC3"
        },
        {
            "bufferView" : 6,
            "componentType" : 5126,
            "count" : 384,
            "type" : "VEC3"
        },
        {
            "bufferView" : 7,
            "componentType" : 5126,
            "count" : 384,
            "type" : "VEC2"
        },
        {
            "bufferView" : 8,
            "componentType" : 5123,
            "count" : 576,
            "type" : "SCALAR"
        },
        {
            "bufferView" : 9,
            "componentType" : 5126,
            "count" : 17,
            "max" : [
                378.71514892578125,
                382.62225341796875,
                -342.15869140625
            ],
            "min" : [
                -394.90350341796875,
                -390.99688720703125,
                -342.15869140625
            ],
            "type" : "VEC3"
        },
        {
            "bufferView" : 10,
            "componentType" : 5126,
            "count" : 17,
            "type" : "VEC3"
        },
        {
            "bufferView" : 11,
            "componentType" : 5126,
            "count" : 17,
            "type" : "VEC2"
        },
        {
            "bufferView" : 12,
            "componentType" : 5123,
            "count" : 48,
            "type" : "SCALAR"
        },
        {
            "bufferView" : 14,
            "componentType" : 5126,
            "count" : 904,
            "max" : [
                438.31622314453125,
                442.22576904296875,
                -189.44287109375
            ],
            "min" : [
                -454.50506591796875,
                -450.59454345703125,
                -434.22802734375
            ],
            "type" : "VEC3"
        },
        {
            "bufferView" : 15,
            "componentType" : 5126,
            "count" : 904,
            "type" : "VEC3"
        },
        {
            "bufferView" : 16,
            "componentType" : 5126,
            "count" : 904,
            "type" : "VEC2"
        },
        {
            "bufferView" : 17,
            "componentType" : 5123,
            "count" : 1536,
            "type" : "SCALAR"
        }
    ],
    "bufferViews" : [
        {
            "buffer" : 0,
            "byteLength" : 408,
            "byteOffset" : 0
        },
        {
            "buffer" : 0,
            "byteLength" : 408,
            "byteOffset" : 408
        },
        {
            "buffer" : 0,
            "byteLength" : 272,
            "byteOffset" : 816
        },
        {
            "buffer" : 0,
            "byteLength" : 192,
            "byteOffset" : 1088
        },
        {
            "buffer" : 0,
            "byteLength" : 95606,
            "byteOffset" : 1280
        },
        {
            "buffer" : 0,
            "byteLength" : 4608,
            "byteOffset" : 96888
        },
        {
            "buffer" : 0,
            "byteLength" : 4608,
            "byteOffset" : 101496
        },
        {
            "buffer" : 0,
            "byteLength" : 3072,
            "byteOffset" : 106104
        },
        {
            "buffer" : 0,
            "byteLength" : 1152,
            "byteOffset" : 109176
        },
        {
            "buffer" : 0,
            "byteLength" : 204,
            "byteOffset" : 110328
        },
        {
            "buffer" : 0,
            "byteLength" : 204,
            "byteOffset" : 110532
        },
        {
            "buffer" : 0,
            "byteLength" : 136,
            "byteOffset" : 110736
        },
        {
            "buffer" : 0,
            "byteLength" : 96,
            "byteOffset" : 110872
        },
        {
            "buffer" : 0,
            "byteLength" : 238102,
            "byteOffset" : 110968
        },
        {
            "buffer" : 0,
            "byteLength" : 10848,
            "byteOffset" : 349072
        },
        {
            "buffer" : 0,
            "byteLength" : 10848,
            "byteOffset" : 359920
        },
        {
            "buffer" : 0,
            "byteLength" : 7232,
            "byteOffset" : 370768
        },
        {
            "buffer" : 0,
            "byteLength" : 3072,
            "byteOffset" : 378000
        }
    ],
    "samplers" : [
        {
            "magFilter" : 9729,
            "minFilter" : 9987
        }
    ],
    "buffers" : [
        {
            "byteLength" : 381072,
            "uri" : "data:application/octet-stream;base64,"
        }
    ]
}
