{
    "asset" : {
        "generator" : "Khronos glTF Blender I/O v1.6.16",
        "version" : "2.0"
    },
    "scene" : 0,
    "scenes" : [
        {
            "name" : "Scene",
            "nodes" : [
                0
            ]
        }
    ],
    "nodes" : [
        {
            "mesh" : 0,
            "name" : "rookSpike",
            "rotation" : [
                0.7071068286895752,
                0,
                0,
                0.7071068286895752
            ],
            "scale" : [
                0.009999999776482582,
                0.009999999776482582,
                0.009999999776482582
            ],
            "translation" : [
                2.384185791015625e-06,
                0,
                0
            ]
        }
    ],
    "materials" : [
        {
            "doubleSided" : true,
            "name" : "Mura_01_TileMat",
            "pbrMetallicRoughness" : {
                "baseColorTexture" : {
                    "index" : 0
                },
                "metallicFactor" : 0,
                "roughnessFactor" : 0.5527864098548889
            }
        },
        {
            "doubleSided" : true,
            "name" : "RocciaMura_01_Mat",
            "pbrMetallicRoughness" : {
                "baseColorFactor" : [
                    0.2471817582845688,
                    0.2471817582845688,
                    0.2471817582845688,
                    1
                ],
                "metallicFactor" : 0,
                "roughnessFactor" : 0.5527864098548889
            }
        },
        {
            "doubleSided" : true,
            "name" : "Zone_Ombra_Mat",
            "pbrMetallicRoughness" : {
                "baseColorFactor" : [
                    0.02489626593887806,
                    0.02489626593887806,
                    0.02489626593887806,
                    1
                ],
                "metallicFactor" : 0,
                "roughnessFactor" : 0.5527864098548889
            }
        },
        {
            "doubleSided" : true,
            "name" : "RocciaMura_02_Mat",
            "pbrMetallicRoughness" : {
                "baseColorFactor" : [
                    0.21138212084770203,
                    0.21138212084770203,
                    0.21138212084770203,
                    1
                ],
                "metallicFactor" : 0,
                "roughnessFactor" : 0.5527864098548889
            }
        },
        {
            "doubleSided" : true,
            "name" : "Gold_01_Mat",
            "pbrMetallicRoughness" : {
                "baseColorFactor" : [
                    1,
                    0.6538499593734741,
                    0,
                    1
                ],
                "metallicFactor" : 0,
                "roughnessFactor" : 0.5527864098548889
            }
        },
        {
            "doubleSided" : true,
            "name" : "Tetto_01_Mat",
            "pbrMetallicRoughness" : {
                "baseColorFactor" : [
                    0.5,
                    0.14785006642341614,
                    0.1184999868273735,
                    1
                ],
                "metallicFactor" : 0,
                "roughnessFactor" : 0.5527864098548889
            }
        },
        {
            "doubleSided" : true,
            "name" : "Tegola_02_Mat",
            "pbrMetallicRoughness" : {
                "baseColorFactor" : [
                    0.3779999911785126,
                    0.08958599716424942,
                    0.08958599716424942,
                    1
                ],
                "metallicFactor" : 0,
                "roughnessFactor" : 0.5527864098548889
            }
        },
        {
            "doubleSided" : true,
            "name" : "Tegola_01_Mat",
            "pbrMetallicRoughness" : {
                "baseColorFactor" : [
                    0.25999999046325684,
                    0.0899600014090538,
                    0.0899600014090538,
                    1
                ],
                "metallicFactor" : 0,
                "roughnessFactor" : 0.5527864098548889
            }
        }
    ],
    "meshes" : [
        {
            "name" : "Mesh.020",
            "primitives" : [
                {
                    "attributes" : {
                        "POSITION" : 0,
                        "NORMAL" : 1,
                        "TEXCOORD_0" : 2
                    },
                    "indices" : 3,
                    "material" : 0
                },
                {
                    "attributes" : {
                        "POSITION" : 4,
                        "NORMAL" : 5,
                        "TEXCOORD_0" : 6
                    },
                    "indices" : 7,
                    "material" : 1
                },
                {
                    "attributes" : {
                        "POSITION" : 8,
                        "NORMAL" : 9,
                        "TEXCOORD_0" : 10
                    },
                    "indices" : 11,
                    "material" : 2
                },
                {
                    "attributes" : {
                        "POSITION" : 12,
                        "NORMAL" : 13,
                        "TEXCOORD_0" : 14
                    },
                    "indices" : 15,
                    "material" : 3
                },
                {
                    "attributes" : {
                        "POSITION" : 16,
                        "NORMAL" : 17,
                        "TEXCOORD_0" : 18
                    },
                    "indices" : 19,
                    "material" : 4
                },
                {
                    "attributes" : {
                        "POSITION" : 20,
                        "NORMAL" : 21,
                        "TEXCOORD_0" : 22
                    },
                    "indices" : 23,
                    "material" : 5
                },
                {
                    "attributes" : {
                        "POSITION" : 24,
                        "NORMAL" : 25,
                        "TEXCOORD_0" : 26
                    },
                    "indices" : 27,
                    "material" : 6
                },
                {
                    "attributes" : {
                        "POSITION" : 28,
                        "NORMAL" : 29,
                        "TEXCOORD_0" : 30
                    },
                    "indices" : 31,
                    "material" : 7
                }
            ]
        }
    ],
    "textures" : [
        {
            "sampler" : 0,
            "source" : 0
        }
    ],
    "images" : [
        {
            "bufferView" : 4,
            "mimeType" : "image/jpeg",
            "name" : "muro_02"
        }
    ],
    "accessors" : [
        {
            "bufferView" : 0,
            "componentType" : 5126,
            "count" : 211,
            "max" : [
                344.70794677734375,
                345.9029846191406,
                -9.114990234375
            ],
            "min" : [
                -351.41607666015625,
                -350.2220458984375,
                -590.381103515625
            ],
            "type" : "VEC3"
        },
        {
            "bufferView" : 1,
            "componentType" : 5126,
            "count" : 211,
            "type" : "VEC3"
        },
        {
            "bufferView" : 2,
            "componentType" : 5126,
            "count" : 211,
            "type" : "VEC2"
        },
        {
            "bufferView" : 3,
            "componentType" : 5123,
            "count" : 528,
            "type" : "SCALAR"
        },
        {
            "bufferView" : 5,
            "componentType" : 5126,
            "count" : 384,
            "max" : [
                364.02239990234375,
                365.2154846191406,
                -483.456787109375
            ],
            "min" : [
                -370.73052978515625,
                -369.5384521484375,
                -530.197021484375
            ],
            "type" : "VEC3"
        },
        {
            "bufferView" : 6,
            "componentType" : 5126,
            "count" : 384,
            "type" : "VEC3"
        },
        {
            "bufferView" : 7,
            "componentType" : 5126,
            "count" : 384,
            "type" : "VEC2"
        },
        {
            "bufferView" : 8,
            "componentType" : 5123,
            "count" : 576,
            "type" : "SCALAR"
        },
        {
            "bufferView" : 9,
            "componentType" : 5126,
            "count" : 32,
            "max" : [
                321.66888427734375,
                322.8639221191406,
                -94.291259765625
            ],
            "min" : [
                -328.37799072265625,
                -327.1829528808594,
                -203.855224609375
            ],
            "type" : "VEC3"
        },
        {
            "bufferView" : 10,
            "componentType" : 5126,
            "count" : 32,
            "type" : "VEC3"
        },
        {
            "bufferView" : 11,
            "componentType" : 5126,
            "count" : 32,
            "type" : "VEC2"
        },
        {
            "bufferView" : 12,
            "componentType" : 5123,
            "count" : 48,
            "type" : "SCALAR"
        },
        {
            "bufferView" : 13,
            "componentType" : 5126,
            "count" : 312,
            "max" : [
                416.89935302734375,
                418.0943908691406,
                -524.930419921875
            ],
            "min" : [
                -423.60845947265625,
                -422.4173583984375,
                -637.159912109375
            ],
            "type" : "VEC3"
        },
        {
            "bufferView" : 14,
            "componentType" : 5126,
            "count" : 312,
            "type" : "VEC3"
        },
        {
            "bufferView" : 15,
            "componentType" : 5126,
            "count" : 312,
            "type" : "VEC2"
        },
        {
            "bufferView" : 16,
            "componentType" : 5123,
            "count" : 576,
            "type" : "SCALAR"
        },
        {
            "bufferView" : 17,
            "componentType" : 5126,
            "count" : 179,
            "max" : [
                25.145431518554688,
                26.344402313232422,
                -2624.660400390625
            ],
            "min" : [
                -31.852615356445312,
                -30.661457061767578,
                -2896.281494140625
            ],
            "type" : "VEC3"
        },
        {
            "bufferView" : 18,
            "componentType" : 5126,
            "count" : 179,
            "type" : "VEC3"
        },
        {
            "bufferView" : 19,
            "componentType" : 5126,
            "count" : 179,
            "type" : "VEC2"
        },
        {
            "bufferView" : 20,
            "componentType" : 5123,
            "count" : 432,
            "type" : "SCALAR"
        },
        {
            "bufferView" : 21,
            "componentType" : 5126,
            "count" : 105,
            "max" : [
                468.48333740234375,
                469.6803283691406,
                -610.645263671875
            ],
            "min" : [
                -475.19244384765625,
                -473.9993896484375,
                -2737.164306640625
            ],
            "type" : "VEC3"
        },
        {
            "bufferView" : 22,
            "componentType" : 5126,
            "count" : 105,
            "type" : "VEC3"
        },
        {
            "bufferView" : 23,
            "componentType" : 5126,
            "count" : 105,
            "type" : "VEC2"
        },
        {
            "bufferView" : 24,
            "componentType" : 5123,
            "count" : 240,
            "type" : "SCALAR"
        },
        {
            "bufferView" : 25,
            "componentType" : 5126,
            "count" : 340,
            "max" : [
                404.86810302734375,
                366.1920471191406,
                -716.904541015625
            ],
            "min" : [
                -410.73736572265625,
                -426.9779052734375,
                -2323.701416015625
            ],
            "type" : "VEC3"
        },
        {
            "bufferView" : 26,
            "componentType" : 5126,
            "count" : 340,
            "type" : "VEC3"
        },
        {
            "bufferView" : 27,
            "componentType" : 5126,
            "count" : 340,
            "type" : "VEC2"
        },
        {
            "bufferView" : 28,
            "componentType" : 5123,
            "count" : 510,
            "type" : "SCALAR"
        },
        {
            "bufferView" : 29,
            "componentType" : 5126,
            "count" : 140,
            "max" : [
                387.90911865234375,
                63.55728530883789,
                -752.806884765625
            ],
            "min" : [
                -287.44830322265625,
                -364.3763427734375,
                -2127.551025390625
            ],
            "type" : "VEC3"
        },
        {
            "bufferView" : 30,
            "componentType" : 5126,
            "count" : 140,
            "type" : "VEC3"
        },
        {
            "bufferView" : 31,
            "componentType" : 5126,
            "count" : 140,
            "type" : "VEC2"
        },
        {
            "bufferView" : 32,
            "componentType" : 5123,
            "count" : 210,
            "type" : "SCALAR"
        }
    ],
    "bufferViews" : [
        {
            "buffer" : 0,
            "byteLength" : 2532,
            "byteOffset" : 0
        },
        {
            "buffer" : 0,
            "byteLength" : 2532,
            "byteOffset" : 2532
        },
        {
            "buffer" : 0,
            "byteLength" : 1688,
            "byteOffset" : 5064
        },
        {
            "buffer" : 0,
            "byteLength" : 1056,
            "byteOffset" : 6752
        },
        {
            "buffer" : 0,
            "byteLength" : 95606,
            "byteOffset" : 7808
        },
        {
            "buffer" : 0,
            "byteLength" : 4608,
            "byteOffset" : 103416
        },
        {
            "buffer" : 0,
            "byteLength" : 4608,
            "byteOffset" : 108024
        },
        {
            "buffer" : 0,
            "byteLength" : 3072,
            "byteOffset" : 112632
        },
        {
            "buffer" : 0,
            "byteLength" : 1152,
            "byteOffset" : 115704
        },
        {
            "buffer" : 0,
            "byteLength" : 384,
            "byteOffset" : 116856
        },
        {
            "buffer" : 0,
            "byteLength" : 384,
            "byteOffset" : 117240
        },
        {
            "buffer" : 0,
            "byteLength" : 256,
            "byteOffset" : 117624
        },
        {
            "buffer" : 0,
            "byteLength" : 96,
            "byteOffset" : 117880
        },
        {
            "buffer" : 0,
            "byteLength" : 3744,
            "byteOffset" : 117976
        },
        {
            "buffer" : 0,
            "byteLength" : 3744,
            "byteOffset" : 121720
        },
        {
            "buffer" : 0,
            "byteLength" : 2496,
            "byteOffset" : 125464
        },
        {
            "buffer" : 0,
            "byteLength" : 1152,
            "byteOffset" : 127960
        },
        {
            "buffer" : 0,
            "byteLength" : 2148,
            "byteOffset" : 129112
        },
        {
            "buffer" : 0,
            "byteLength" : 2148,
            "byteOffset" : 131260
        },
        {
            "buffer" : 0,
            "byteLength" : 1432,
            "byteOffset" : 133408
        },
        {
            "buffer" : 0,
            "byteLength" : 864,
            "byteOffset" : 134840
        },
        {
            "buffer" : 0,
            "byteLength" : 1260,
            "byteOffset" : 135704
        },
        {
            "buffer" : 0,
            "byteLength" : 1260,
            "byteOffset" : 136964
        },
        {
            "buffer" : 0,
            "byteLength" : 840,
            "byteOffset" : 138224
        },
        {
            "buffer" : 0,
            "byteLength" : 480,
            "byteOffset" : 139064
        },
        {
            "buffer" : 0,
            "byteLength" : 4080,
            "byteOffset" : 139544
        },
        {
            "buffer" : 0,
            "byteLength" : 4080,
            "byteOffset" : 143624
        },
        {
            "buffer" : 0,
            "byteLength" : 2720,
            "byteOffset" : 147704
        },
        {
            "buffer" : 0,
            "byteLength" : 1020,
            "byteOffset" : 150424
        },
        {
            "buffer" : 0,
            "byteLength" : 1680,
            "byteOffset" : 151444
        },
        {
            "buffer" : 0,
            "byteLength" : 1680,
            "byteOffset" : 153124
        },
        {
            "buffer" : 0,
            "byteLength" : 1120,
            "byteOffset" : 154804
        },
        {
            "buffer" : 0,
            "byteLength" : 420,
            "byteOffset" : 155924
        }
    ],
    "samplers" : [
        {
            "magFilter" : 9729,
            "minFilter" : 9987
        }
    ],
    "buffers" : [
        {
            "byteLength" : 156344,
            "uri" : "data:application/octet-stream;base64,"
        }
    ]
}
