{
    "asset" : {
        "generator" : "Khronos glTF Blender I/O v1.6.16",
        "version" : "2.0"
    },
    "scene" : 0,
    "scenes" : [
        {
            "name" : "Scene",
            "nodes" : [
                0
            ]
        }
    ],
    "nodes" : [
        {
            "mesh" : 0,
            "name" : "rookSquare",
            "rotation" : [
                0.7071068286895752,
                0,
                0,
                0.7071068286895752
            ],
            "scale" : [
                0.009999999776482582,
                0.009999999776482582,
                0.009999999776482582
            ],
            "translation" : [
                2.384185791015625e-06,
                0,
                0
            ]
        }
    ],
    "materials" : [
        {
            "doubleSided" : true,
            "name" : "Mura_01_TileMat",
            "pbrMetallicRoughness" : {
                "baseColorTexture" : {
                    "index" : 0
                },
                "metallicFactor" : 0,
                "roughnessFactor" : 0.5527864098548889
            }
        },
        {
            "doubleSided" : true,
            "name" : "RocciaMura_01_Mat",
            "pbrMetallicRoughness" : {
                "baseColorFactor" : [
                    0.2471817582845688,
                    0.2471817582845688,
                    0.2471817582845688,
                    1
                ],
                "metallicFactor" : 0,
                "roughnessFactor" : 0.5527864098548889
            }
        },
        {
            "doubleSided" : true,
            "name" : "Passerella_Legno_TopMura_02_Mat",
            "pbrMetallicRoughness" : {
                "baseColorTexture" : {
                    "index" : 1
                },
                "metallicFactor" : 0,
                "roughnessFactor" : 0.5527864098548889
            }
        },
        {
            "doubleSided" : true,
            "name" : "RocciaMura_05_Mat",
            "pbrMetallicRoughness" : {
                "baseColorFactor" : [
                    0.3240000009536743,
                    0.3240000009536743,
                    0.3240000009536743,
                    1
                ],
                "metallicFactor" : 0,
                "roughnessFactor" : 0.5527864098548889
            }
        }
    ],
    "meshes" : [
        {
            "name" : "Mesh.019",
            "primitives" : [
                {
                    "attributes" : {
                        "POSITION" : 0,
                        "NORMAL" : 1,
                        "TEXCOORD_0" : 2
                    },
                    "indices" : 3,
                    "material" : 0
                },
                {
                    "attributes" : {
                        "POSITION" : 4,
                        "NORMAL" : 5,
                        "TEXCOORD_0" : 6
                    },
                    "indices" : 7,
                    "material" : 1
                },
                {
                    "attributes" : {
                        "POSITION" : 8,
                        "NORMAL" : 9,
                        "TEXCOORD_0" : 10
                    },
                    "indices" : 11,
                    "material" : 2
                },
                {
                    "attributes" : {
                        "POSITION" : 12,
                        "NORMAL" : 13,
                        "TEXCOORD_0" : 14
                    },
                    "indices" : 15,
                    "material" : 3
                }
            ]
        }
    ],
    "textures" : [
        {
            "sampler" : 0,
            "source" : 0
        },
        {
            "sampler" : 0,
            "source" : 1
        }
    ],
    "images" : [
        {
            "bufferView" : 4,
            "mimeType" : "image/jpeg",
            "name" : "muro_02"
        },
        {
            "bufferView" : 13,
            "mimeType" : "image/jpeg",
            "name" : "assi_tiled"
        }
    ],
    "accessors" : [
        {
            "bufferView" : 0,
            "componentType" : 5126,
            "count" : 20,
            "max" : [
                238.86679077148438,
                223.61175537109375,
                -11.443493843078613
            ],
            "min" : [
                -270.5375061035156,
                -244.1792755126953,
                -3009.380859375
            ],
            "type" : "VEC3"
        },
        {
            "bufferView" : 1,
            "componentType" : 5126,
            "count" : 20,
            "type" : "VEC3"
        },
        {
            "bufferView" : 2,
            "componentType" : 5126,
            "count" : 20,
            "type" : "VEC2"
        },
        {
            "bufferView" : 3,
            "componentType" : 5123,
            "count" : 30,
            "type" : "SCALAR"
        },
        {
            "bufferView" : 5,
            "componentType" : 5126,
            "count" : 192,
            "max" : [
                296.0308532714844,
                291.35394287109375,
                -2777.48681640625
            ],
            "min" : [
                -332.6214904785156,
                -315.68902587890625,
                -3187.5791015625
            ],
            "type" : "VEC3"
        },
        {
            "bufferView" : 6,
            "componentType" : 5126,
            "count" : 192,
            "type" : "VEC3"
        },
        {
            "bufferView" : 7,
            "componentType" : 5126,
            "count" : 192,
            "type" : "VEC2"
        },
        {
            "bufferView" : 8,
            "componentType" : 5123,
            "count" : 384,
            "type" : "SCALAR"
        },
        {
            "bufferView" : 9,
            "componentType" : 5126,
            "count" : 4,
            "max" : [
                238.86679077148438,
                223.61175537109375,
                -3009.380859375
            ],
            "min" : [
                -270.5375061035156,
                -244.1792755126953,
                -3009.380859375
            ],
            "type" : "VEC3"
        },
        {
            "bufferView" : 10,
            "componentType" : 5126,
            "count" : 4,
            "type" : "VEC3"
        },
        {
            "bufferView" : 11,
            "componentType" : 5126,
            "count" : 4,
            "type" : "VEC2"
        },
        {
            "bufferView" : 12,
            "componentType" : 5123,
            "count" : 6,
            "type" : "SCALAR"
        },
        {
            "bufferView" : 14,
            "componentType" : 5126,
            "count" : 483,
            "max" : [
                265.8345642089844,
                261.23870849609375,
                -2961.57958984375
            ],
            "min" : [
                -302.4242248535156,
                -288.26715087890625,
                -3097.73779296875
            ],
            "type" : "VEC3"
        },
        {
            "bufferView" : 15,
            "componentType" : 5126,
            "count" : 483,
            "type" : "VEC3"
        },
        {
            "bufferView" : 16,
            "componentType" : 5126,
            "count" : 483,
            "type" : "VEC2"
        },
        {
            "bufferView" : 17,
            "componentType" : 5123,
            "count" : 876,
            "type" : "SCALAR"
        }
    ],
    "bufferViews" : [
        {
            "buffer" : 0,
            "byteLength" : 240,
            "byteOffset" : 0
        },
        {
            "buffer" : 0,
            "byteLength" : 240,
            "byteOffset" : 240
        },
        {
            "buffer" : 0,
            "byteLength" : 160,
            "byteOffset" : 480
        },
        {
            "buffer" : 0,
            "byteLength" : 60,
            "byteOffset" : 640
        },
        {
            "buffer" : 0,
            "byteLength" : 95606,
            "byteOffset" : 700
        },
        {
            "buffer" : 0,
            "byteLength" : 2304,
            "byteOffset" : 96308
        },
        {
            "buffer" : 0,
            "byteLength" : 2304,
            "byteOffset" : 98612
        },
        {
            "buffer" : 0,
            "byteLength" : 1536,
            "byteOffset" : 100916
        },
        {
            "buffer" : 0,
            "byteLength" : 768,
            "byteOffset" : 102452
        },
        {
            "buffer" : 0,
            "byteLength" : 48,
            "byteOffset" : 103220
        },
        {
            "buffer" : 0,
            "byteLength" : 48,
            "byteOffset" : 103268
        },
        {
            "buffer" : 0,
            "byteLength" : 32,
            "byteOffset" : 103316
        },
        {
            "buffer" : 0,
            "byteLength" : 12,
            "byteOffset" : 103348
        },
        {
            "buffer" : 0,
            "byteLength" : 305422,
            "byteOffset" : 103360
        },
        {
            "buffer" : 0,
            "byteLength" : 5796,
            "byteOffset" : 408784
        },
        {
            "buffer" : 0,
            "byteLength" : 5796,
            "byteOffset" : 414580
        },
        {
            "buffer" : 0,
            "byteLength" : 3864,
            "byteOffset" : 420376
        },
        {
            "buffer" : 0,
            "byteLength" : 1752,
            "byteOffset" : 424240
        }
    ],
    "samplers" : [
        {
            "magFilter" : 9729,
            "minFilter" : 9987
        }
    ],
    "buffers" : [
        {
            "byteLength" : 425992,
            "uri" : "data:application/octet-stream;base64,"
        }
    ]
}
