{
    "asset" : {
        "generator" : "Khronos glTF Blender I/O v1.6.16",
        "version" : "2.0"
    },
    "scene" : 0,
    "scenes" : [
        {
            "name" : "Scene",
            "nodes" : [
                0
            ]
        }
    ],
    "nodes" : [
        {
            "mesh" : 0,
            "name" : "rookBodyDoor",
            "rotation" : [
                0.7071068286895752,
                0,
                0,
                0.7071068286895752
            ],
            "scale" : [
                0.009999999776482582,
                0.009999999776482582,
                0.009999999776482582
            ],
            "translation" : [
                2.384185791015625e-06,
                0,
                0
            ]
        }
    ],
    "materials" : [
        {
            "doubleSided" : true,
            "name" : "Mura_01_TileMat",
            "pbrMetallicRoughness" : {
                "baseColorTexture" : {
                    "index" : 0
                },
                "metallicFactor" : 0,
                "roughnessFactor" : 0.5527864098548889
            }
        },
        {
            "doubleSided" : true,
            "name" : "RocciaMura_01_Mat",
            "pbrMetallicRoughness" : {
                "baseColorFactor" : [
                    0.2471817582845688,
                    0.2471817582845688,
                    0.2471817582845688,
                    1
                ],
                "metallicFactor" : 0,
                "roughnessFactor" : 0.5527864098548889
            }
        },
        {
            "doubleSided" : true,
            "name" : "RocciaMura_05_Mat",
            "pbrMetallicRoughness" : {
                "baseColorFactor" : [
                    0.3240000009536743,
                    0.3240000009536743,
                    0.3240000009536743,
                    1
                ],
                "metallicFactor" : 0,
                "roughnessFactor" : 0.5527864098548889
            }
        },
        {
            "doubleSided" : true,
            "name" : "RocciaMura_02_Mat",
            "pbrMetallicRoughness" : {
                "baseColorFactor" : [
                    0.21138212084770203,
                    0.21138212084770203,
                    0.21138212084770203,
                    1
                ],
                "metallicFactor" : 0,
                "roughnessFactor" : 0.5527864098548889
            }
        },
        {
            "doubleSided" : true,
            "name" : "RocciaMura_04_Mat",
            "pbrMetallicRoughness" : {
                "baseColorFactor" : [
                    0.14342418313026428,
                    0.14342418313026428,
                    0.14342418313026428,
                    1
                ],
                "metallicFactor" : 0,
                "roughnessFactor" : 0.5527864098548889
            }
        }
    ],
    "meshes" : [
        {
            "name" : "Mesh.012",
            "primitives" : [
                {
                    "attributes" : {
                        "POSITION" : 0,
                        "NORMAL" : 1,
                        "TEXCOORD_0" : 2
                    },
                    "indices" : 3,
                    "material" : 0
                },
                {
                    "attributes" : {
                        "POSITION" : 4,
                        "NORMAL" : 5,
                        "TEXCOORD_0" : 6
                    },
                    "indices" : 7,
                    "material" : 1
                },
                {
                    "attributes" : {
                        "POSITION" : 8,
                        "NORMAL" : 9,
                        "TEXCOORD_0" : 10
                    },
                    "indices" : 11,
                    "material" : 2
                },
                {
                    "attributes" : {
                        "POSITION" : 12,
                        "NORMAL" : 13,
                        "TEXCOORD_0" : 14
                    },
                    "indices" : 15,
                    "material" : 3
                },
                {
                    "attributes" : {
                        "POSITION" : 16,
                        "NORMAL" : 17,
                        "TEXCOORD_0" : 18
                    },
                    "indices" : 19,
                    "material" : 4
                }
            ]
        }
    ],
    "textures" : [
        {
            "sampler" : 0,
            "source" : 0
        }
    ],
    "images" : [
        {
            "bufferView" : 4,
            "mimeType" : "image/jpeg",
            "name" : "muro_02"
        }
    ],
    "accessors" : [
        {
            "bufferView" : 0,
            "componentType" : 5126,
            "count" : 120,
            "max" : [
                378.71514892578125,
                382.62213134765625,
                -7.973938772920519e-05
            ],
            "min" : [
                -394.90350341796875,
                -390.99700927734375,
                -596.1528930664062
            ],
            "type" : "VEC3"
        },
        {
            "bufferView" : 1,
            "componentType" : 5126,
            "count" : 120,
            "type" : "VEC3"
        },
        {
            "bufferView" : 2,
            "componentType" : 5126,
            "count" : 120,
            "type" : "VEC2"
        },
        {
            "bufferView" : 3,
            "componentType" : 5123,
            "count" : 462,
            "type" : "SCALAR"
        },
        {
            "bufferView" : 5,
            "componentType" : 5126,
            "count" : 168,
            "max" : [
                128.461181640625,
                -344.30487060546875,
                -2.385348320007324
            ],
            "min" : [
                -131.929931640625,
                -401.46893310546875,
                -319.1929626464844
            ],
            "type" : "VEC3"
        },
        {
            "bufferView" : 6,
            "componentType" : 5126,
            "count" : 168,
            "type" : "VEC3"
        },
        {
            "bufferView" : 7,
            "componentType" : 5126,
            "count" : 168,
            "type" : "VEC2"
        },
        {
            "bufferView" : 8,
            "componentType" : 5123,
            "count" : 276,
            "type" : "SCALAR"
        },
        {
            "bufferView" : 9,
            "componentType" : 5126,
            "count" : 48,
            "max" : [
                64.7119140625,
                -341.49432373046875,
                -268.76123046875
            ],
            "min" : [
                -69.4736328125,
                -404.42401123046875,
                -322.03515625
            ],
            "type" : "VEC3"
        },
        {
            "bufferView" : 10,
            "componentType" : 5126,
            "count" : 48,
            "type" : "VEC3"
        },
        {
            "bufferView" : 11,
            "componentType" : 5126,
            "count" : 48,
            "type" : "VEC2"
        },
        {
            "bufferView" : 12,
            "componentType" : 5123,
            "count" : 72,
            "type" : "SCALAR"
        },
        {
            "bufferView" : 13,
            "componentType" : 5126,
            "count" : 40,
            "max" : [
                140.1279296875,
                -341.16815185546875,
                -48.007728576660156
            ],
            "min" : [
                -142.75048828125,
                -403.73455810546875,
                -106.71622467041016
            ],
            "type" : "VEC3"
        },
        {
            "bufferView" : 14,
            "componentType" : 5126,
            "count" : 40,
            "type" : "VEC3"
        },
        {
            "bufferView" : 15,
            "componentType" : 5126,
            "count" : 40,
            "type" : "VEC2"
        },
        {
            "bufferView" : 16,
            "componentType" : 5123,
            "count" : 60,
            "type" : "SCALAR"
        },
        {
            "bufferView" : 17,
            "componentType" : 5126,
            "count" : 64,
            "max" : [
                140.8994140625,
                -338.01971435546875,
                -2.385348320007324
            ],
            "min" : [
                -143.521484375,
                -407.39276123046875,
                -330.9412536621094
            ],
            "type" : "VEC3"
        },
        {
            "bufferView" : 18,
            "componentType" : 5126,
            "count" : 64,
            "type" : "VEC3"
        },
        {
            "bufferView" : 19,
            "componentType" : 5126,
            "count" : 64,
            "type" : "VEC2"
        },
        {
            "bufferView" : 20,
            "componentType" : 5123,
            "count" : 102,
            "type" : "SCALAR"
        }
    ],
    "bufferViews" : [
        {
            "buffer" : 0,
            "byteLength" : 1440,
            "byteOffset" : 0
        },
        {
            "buffer" : 0,
            "byteLength" : 1440,
            "byteOffset" : 1440
        },
        {
            "buffer" : 0,
            "byteLength" : 960,
            "byteOffset" : 2880
        },
        {
            "buffer" : 0,
            "byteLength" : 924,
            "byteOffset" : 3840
        },
        {
            "buffer" : 0,
            "byteLength" : 95606,
            "byteOffset" : 4764
        },
        {
            "buffer" : 0,
            "byteLength" : 2016,
            "byteOffset" : 100372
        },
        {
            "buffer" : 0,
            "byteLength" : 2016,
            "byteOffset" : 102388
        },
        {
            "buffer" : 0,
            "byteLength" : 1344,
            "byteOffset" : 104404
        },
        {
            "buffer" : 0,
            "byteLength" : 552,
            "byteOffset" : 105748
        },
        {
            "buffer" : 0,
            "byteLength" : 576,
            "byteOffset" : 106300
        },
        {
            "buffer" : 0,
            "byteLength" : 576,
            "byteOffset" : 106876
        },
        {
            "buffer" : 0,
            "byteLength" : 384,
            "byteOffset" : 107452
        },
        {
            "buffer" : 0,
            "byteLength" : 144,
            "byteOffset" : 107836
        },
        {
            "buffer" : 0,
            "byteLength" : 480,
            "byteOffset" : 107980
        },
        {
            "buffer" : 0,
            "byteLength" : 480,
            "byteOffset" : 108460
        },
        {
            "buffer" : 0,
            "byteLength" : 320,
            "byteOffset" : 108940
        },
        {
            "buffer" : 0,
            "byteLength" : 120,
            "byteOffset" : 109260
        },
        {
            "buffer" : 0,
            "byteLength" : 768,
            "byteOffset" : 109380
        },
        {
            "buffer" : 0,
            "byteLength" : 768,
            "byteOffset" : 110148
        },
        {
            "buffer" : 0,
            "byteLength" : 512,
            "byteOffset" : 110916
        },
        {
            "buffer" : 0,
            "byteLength" : 204,
            "byteOffset" : 111428
        }
    ],
    "samplers" : [
        {
            "magFilter" : 9729,
            "minFilter" : 9987
        }
    ],
    "buffers" : [
        {
            "byteLength" : 111632,
            "uri" : "data:application/octet-stream;base64,"
        }
    ]
}
