{
    "asset" : {
        "generator" : "Khronos glTF Blender I/O v1.6.16",
        "version" : "2.0"
    },
    "scene" : 0,
    "scenes" : [
        {
            "name" : "Scene",
            "nodes" : [
                0
            ]
        }
    ],
    "nodes" : [
        {
            "mesh" : 0,
            "name" : "tree3",
            "rotation" : [
                0.7071068286895752,
                0,
                0,
                0.7071068286895752
            ],
            "scale" : [
                0.009999999776482582,
                0.009999999776482582,
                0.009999999776482582
            ],
            "translation" : [
                2.384185791015625e-06,
                0,
                0
            ]
        }
    ],
    "materials" : [
        {
            "doubleSided" : true,
            "name" : "Legno01_Mat",
            "pbrMetallicRoughness" : {
                "baseColorFactor" : [
                    0.23800000548362732,
                    0.15777572989463806,
                    0.09758000820875168,
                    1
                ],
                "metallicFactor" : 0,
                "roughnessFactor" : 0.5527864098548889
            }
        },
        {
            "doubleSided" : true,
            "name" : "Albero02_Mat1",
            "pbrMetallicRoughness" : {
                "baseColorFactor" : [
                    0.4560000002384186,
                    0.1353641003370285,
                    0.12266399711370468,
                    1
                ],
                "metallicFactor" : 0,
                "roughnessFactor" : 0.5527864098548889
            }
        },
        {
            "doubleSided" : true,
            "name" : "Albero01_Mat",
            "pbrMetallicRoughness" : {
                "baseColorFactor" : [
                    0.6570000052452087,
                    0.2722044289112091,
                    0.10117799043655396,
                    1
                ],
                "metallicFactor" : 0,
                "roughnessFactor" : 0.5527864098548889
            }
        }
    ],
    "meshes" : [
        {
            "name" : "Mesh.010",
            "primitives" : [
                {
                    "attributes" : {
                        "POSITION" : 0,
                        "NORMAL" : 1,
                        "TEXCOORD_0" : 2
                    },
                    "indices" : 3,
                    "material" : 0
                },
                {
                    "attributes" : {
                        "POSITION" : 4,
                        "NORMAL" : 5,
                        "TEXCOORD_0" : 6
                    },
                    "indices" : 7,
                    "material" : 1
                },
                {
                    "attributes" : {
                        "POSITION" : 8,
                        "NORMAL" : 9,
                        "TEXCOORD_0" : 10
                    },
                    "indices" : 11,
                    "material" : 2
                }
            ]
        }
    ],
    "accessors" : [
        {
            "bufferView" : 0,
            "componentType" : 5126,
            "count" : 108,
            "max" : [
                146.0838623046875,
                40.858642578125,
                1.0202406644821167
            ],
            "min" : [
                -159.324951171875,
                -40.518310546875,
                -486.72015380859375
            ],
            "type" : "VEC3"
        },
        {
            "bufferView" : 1,
            "componentType" : 5126,
            "count" : 108,
            "type" : "VEC3"
        },
        {
            "bufferView" : 2,
            "componentType" : 5126,
            "count" : 108,
            "type" : "VEC2"
        },
        {
            "bufferView" : 3,
            "componentType" : 5123,
            "count" : 216,
            "type" : "SCALAR"
        },
        {
            "bufferView" : 4,
            "componentType" : 5126,
            "count" : 96,
            "max" : [
                343.8389892578125,
                162.776611328125,
                -420.5229797363281
            ],
            "min" : [
                35.915771484375,
                -162.436279296875,
                -746.8399658203125
            ],
            "type" : "VEC3"
        },
        {
            "bufferView" : 5,
            "componentType" : 5126,
            "count" : 96,
            "type" : "VEC3"
        },
        {
            "bufferView" : 6,
            "componentType" : 5126,
            "count" : 96,
            "type" : "VEC2"
        },
        {
            "bufferView" : 7,
            "componentType" : 5123,
            "count" : 144,
            "type" : "SCALAR"
        },
        {
            "bufferView" : 8,
            "componentType" : 5126,
            "count" : 96,
            "max" : [
                145.9847412109375,
                282.313720703125,
                -432.0145568847656
            ],
            "min" : [
                -368.5584716796875,
                -281.971435546875,
                -954.5558471679688
            ],
            "type" : "VEC3"
        },
        {
            "bufferView" : 9,
            "componentType" : 5126,
            "count" : 96,
            "type" : "VEC3"
        },
        {
            "bufferView" : 10,
            "componentType" : 5126,
            "count" : 96,
            "type" : "VEC2"
        },
        {
            "bufferView" : 11,
            "componentType" : 5123,
            "count" : 144,
            "type" : "SCALAR"
        }
    ],
    "bufferViews" : [
        {
            "buffer" : 0,
            "byteLength" : 1296,
            "byteOffset" : 0
        },
        {
            "buffer" : 0,
            "byteLength" : 1296,
            "byteOffset" : 1296
        },
        {
            "buffer" : 0,
            "byteLength" : 864,
            "byteOffset" : 2592
        },
        {
            "buffer" : 0,
            "byteLength" : 432,
            "byteOffset" : 3456
        },
        {
            "buffer" : 0,
            "byteLength" : 1152,
            "byteOffset" : 3888
        },
        {
            "buffer" : 0,
            "byteLength" : 1152,
            "byteOffset" : 5040
        },
        {
            "buffer" : 0,
            "byteLength" : 768,
            "byteOffset" : 6192
        },
        {
            "buffer" : 0,
            "byteLength" : 288,
            "byteOffset" : 6960
        },
        {
            "buffer" : 0,
            "byteLength" : 1152,
            "byteOffset" : 7248
        },
        {
            "buffer" : 0,
            "byteLength" : 1152,
            "byteOffset" : 8400
        },
        {
            "buffer" : 0,
            "byteLength" : 768,
            "byteOffset" : 9552
        },
        {
            "buffer" : 0,
            "byteLength" : 288,
            "byteOffset" : 10320
        }
    ],
    "buffers" : [
        {
            "byteLength" : 10608,
            "uri" : "data:application/octet-stream;base64,"
        }
    ]
}
