{
    "asset" : {
        "generator" : "Khronos glTF Blender I/O v1.6.16",
        "version" : "2.0"
    },
    "scene" : 0,
    "scenes" : [
        {
            "name" : "Scene",
            "nodes" : [
                0
            ]
        }
    ],
    "nodes" : [
        {
            "mesh" : 0,
            "name" : "tree2",
            "rotation" : [
                0.7071068286895752,
                0,
                0,
                0.7071068286895752
            ],
            "scale" : [
                0.009999999776482582,
                0.009999999776482582,
                0.009999999776482582
            ],
            "translation" : [
                2.384185791015625e-06,
                0,
                0
            ]
        }
    ],
    "materials" : [
        {
            "doubleSided" : true,
            "name" : "Legno01_Mat",
            "pbrMetallicRoughness" : {
                "baseColorFactor" : [
                    0.23800000548362732,
                    0.15777572989463806,
                    0.09758000820875168,
                    1
                ],
                "metallicFactor" : 0,
                "roughnessFactor" : 0.5527864098548889
            }
        },
        {
            "doubleSided" : true,
            "name" : "Albero02_Mat1",
            "pbrMetallicRoughness" : {
                "baseColorFactor" : [
                    0.4560000002384186,
                    0.1353641003370285,
                    0.12266399711370468,
                    1
                ],
                "metallicFactor" : 0,
                "roughnessFactor" : 0.5527864098548889
            }
        },
        {
            "doubleSided" : true,
            "name" : "Albero01_Mat",
            "pbrMetallicRoughness" : {
                "baseColorFactor" : [
                    0.6570000052452087,
                    0.2722044289112091,
                    0.10117799043655396,
                    1
                ],
                "metallicFactor" : 0,
                "roughnessFactor" : 0.5527864098548889
            }
        }
    ],
    "meshes" : [
        {
            "name" : "Mesh.009",
            "primitives" : [
                {
                    "attributes" : {
                        "POSITION" : 0,
                        "NORMAL" : 1,
                        "TEXCOORD_0" : 2
                    },
                    "indices" : 3,
                    "material" : 0
                },
                {
                    "attributes" : {
                        "POSITION" : 4,
                        "NORMAL" : 5,
                        "TEXCOORD_0" : 6
                    },
                    "indices" : 7,
                    "material" : 1
                },
                {
                    "attributes" : {
                        "POSITION" : 8,
                        "NORMAL" : 9,
                        "TEXCOORD_0" : 10
                    },
                    "indices" : 11,
                    "material" : 2
                }
            ]
        }
    ],
    "accessors" : [
        {
            "bufferView" : 0,
            "componentType" : 5126,
            "count" : 156,
            "max" : [
                129.298095703125,
                126.71408081054688,
                4.733114719390869
            ],
            "min" : [
                -200.83935546875,
                -152.11209106445312,
                -561.0001220703125
            ],
            "type" : "VEC3"
        },
        {
            "bufferView" : 1,
            "componentType" : 5126,
            "count" : 156,
            "type" : "VEC3"
        },
        {
            "bufferView" : 2,
            "componentType" : 5126,
            "count" : 156,
            "type" : "VEC2"
        },
        {
            "bufferView" : 3,
            "componentType" : 5123,
            "count" : 288,
            "type" : "SCALAR"
        },
        {
            "bufferView" : 4,
            "componentType" : 5126,
            "count" : 96,
            "max" : [
                330.97216796875,
                345.3273620605469,
                -484.2176513671875
            ],
            "min" : [
                -20.037353515625,
                -24.018341064453125,
                -862.7149047851562
            ],
            "type" : "VEC3"
        },
        {
            "bufferView" : 5,
            "componentType" : 5126,
            "count" : 96,
            "type" : "VEC3"
        },
        {
            "bufferView" : 6,
            "componentType" : 5126,
            "count" : 96,
            "type" : "VEC2"
        },
        {
            "bufferView" : 7,
            "componentType" : 5123,
            "count" : 144,
            "type" : "SCALAR"
        },
        {
            "bufferView" : 8,
            "componentType" : 5126,
            "count" : 192,
            "max" : [
                220.274658203125,
                220.26290893554688,
                -332.32037353515625
            ],
            "min" : [
                -381.153076171875,
                -427.7605285644531,
                -1103.6458740234375
            ],
            "type" : "VEC3"
        },
        {
            "bufferView" : 9,
            "componentType" : 5126,
            "count" : 192,
            "type" : "VEC3"
        },
        {
            "bufferView" : 10,
            "componentType" : 5126,
            "count" : 192,
            "type" : "VEC2"
        },
        {
            "bufferView" : 11,
            "componentType" : 5123,
            "count" : 288,
            "type" : "SCALAR"
        }
    ],
    "bufferViews" : [
        {
            "buffer" : 0,
            "byteLength" : 1872,
            "byteOffset" : 0
        },
        {
            "buffer" : 0,
            "byteLength" : 1872,
            "byteOffset" : 1872
        },
        {
            "buffer" : 0,
            "byteLength" : 1248,
            "byteOffset" : 3744
        },
        {
            "buffer" : 0,
            "byteLength" : 576,
            "byteOffset" : 4992
        },
        {
            "buffer" : 0,
            "byteLength" : 1152,
            "byteOffset" : 5568
        },
        {
            "buffer" : 0,
            "byteLength" : 1152,
            "byteOffset" : 6720
        },
        {
            "buffer" : 0,
            "byteLength" : 768,
            "byteOffset" : 7872
        },
        {
            "buffer" : 0,
            "byteLength" : 288,
            "byteOffset" : 8640
        },
        {
            "buffer" : 0,
            "byteLength" : 2304,
            "byteOffset" : 8928
        },
        {
            "buffer" : 0,
            "byteLength" : 2304,
            "byteOffset" : 11232
        },
        {
            "buffer" : 0,
            "byteLength" : 1536,
            "byteOffset" : 13536
        },
        {
            "buffer" : 0,
            "byteLength" : 576,
            "byteOffset" : 15072
        }
    ],
    "buffers" : [
        {
            "byteLength" : 15648,
            "uri" : "data:application/octet-stream;base64,"
        }
    ]
}
