{
    "asset" : {
        "generator" : "Khronos glTF Blender I/O v1.6.16",
        "version" : "2.0"
    },
    "scene" : 0,
    "scenes" : [
        {
            "name" : "Scene",
            "nodes" : [
                0
            ]
        }
    ],
    "nodes" : [
        {
            "mesh" : 0,
            "name" : "treePine",
            "rotation" : [
                0.7071068286895752,
                0,
                0,
                0.7071068286895752
            ],
            "scale" : [
                0.009999999776482582,
                0.009999999776482582,
                0.009999999776482582
            ],
            "translation" : [
                2.384185791015625e-06,
                0.00865783542394638,
                -0.01097261905670166
            ]
        }
    ],
    "materials" : [
        {
            "doubleSided" : true,
            "name" : "Legno01_Mat",
            "pbrMetallicRoughness" : {
                "baseColorFactor" : [
                    0.23800000548362732,
                    0.15777572989463806,
                    0.09758000820875168,
                    1
                ],
                "metallicFactor" : 0,
                "roughnessFactor" : 0.5527864098548889
            }
        },
        {
            "doubleSided" : true,
            "name" : "Albero02_Mat",
            "pbrMetallicRoughness" : {
                "baseColorFactor" : [
                    0.4308511018753052,
                    0.671999990940094,
                    0.2540160119533539,
                    1
                ],
                "metallicFactor" : 0,
                "roughnessFactor" : 0.5527864098548889
            }
        }
    ],
    "meshes" : [
        {
            "name" : "Mesh.004",
            "primitives" : [
                {
                    "attributes" : {
                        "POSITION" : 0,
                        "NORMAL" : 1,
                        "TEXCOORD_0" : 2
                    },
                    "indices" : 3,
                    "material" : 0
                },
                {
                    "attributes" : {
                        "POSITION" : 4,
                        "NORMAL" : 5,
                        "TEXCOORD_0" : 6
                    },
                    "indices" : 7,
                    "material" : 1
                }
            ]
        }
    ],
    "accessors" : [
        {
            "bufferView" : 0,
            "componentType" : 5126,
            "count" : 24,
            "max" : [
                31.79566192626953,
                28.15838050842285,
                0.9772834777832031
            ],
            "min" : [
                -32.10434341430664,
                -27.179988861083984,
                -252.69448852539062
            ],
            "type" : "VEC3"
        },
        {
            "bufferView" : 1,
            "componentType" : 5126,
            "count" : 24,
            "type" : "VEC3"
        },
        {
            "bufferView" : 2,
            "componentType" : 5126,
            "count" : 24,
            "type" : "VEC2"
        },
        {
            "bufferView" : 3,
            "componentType" : 5123,
            "count" : 36,
            "type" : "SCALAR"
        },
        {
            "bufferView" : 4,
            "componentType" : 5126,
            "count" : 152,
            "max" : [
                121.0047378540039,
                121.64934539794922,
                -186.98196411132812
            ],
            "min" : [
                -121.3134994506836,
                -120.66899871826172,
                -906.9909057617188
            ],
            "type" : "VEC3"
        },
        {
            "bufferView" : 5,
            "componentType" : 5126,
            "count" : 152,
            "type" : "VEC3"
        },
        {
            "bufferView" : 6,
            "componentType" : 5126,
            "count" : 152,
            "type" : "VEC2"
        },
        {
            "bufferView" : 7,
            "componentType" : 5123,
            "count" : 240,
            "type" : "SCALAR"
        }
    ],
    "bufferViews" : [
        {
            "buffer" : 0,
            "byteLength" : 288,
            "byteOffset" : 0
        },
        {
            "buffer" : 0,
            "byteLength" : 288,
            "byteOffset" : 288
        },
        {
            "buffer" : 0,
            "byteLength" : 192,
            "byteOffset" : 576
        },
        {
            "buffer" : 0,
            "byteLength" : 72,
            "byteOffset" : 768
        },
        {
            "buffer" : 0,
            "byteLength" : 1824,
            "byteOffset" : 840
        },
        {
            "buffer" : 0,
            "byteLength" : 1824,
            "byteOffset" : 2664
        },
        {
            "buffer" : 0,
            "byteLength" : 1216,
            "byteOffset" : 4488
        },
        {
            "buffer" : 0,
            "byteLength" : 480,
            "byteOffset" : 5704
        }
    ],
    "buffers" : [
        {
            "byteLength" : 6184,
            "uri" : "data:application/octet-stream;base64,"
        }
    ]
}
