{
    "asset" : {
        "generator" : "Khronos glTF Blender I/O v1.6.16",
        "version" : "2.0"
    },
    "scene" : 0,
    "scenes" : [
        {
            "name" : "Scene",
            "nodes" : [
                0
            ]
        }
    ],
    "nodes" : [
        {
            "mesh" : 0,
            "name" : "wallRound45",
            "rotation" : [
                0.7071068286895752,
                0,
                0,
                0.7071068286895752
            ],
            "scale" : [
                0.009999999776482582,
                0.009999999776482582,
                0.009999999776482582
            ],
            "translation" : [
                2.384185791015625e-06,
                0,
                0
            ]
        }
    ],
    "materials" : [
        {
            "doubleSided" : true,
            "name" : "Mura_01_TileMat",
            "pbrMetallicRoughness" : {
                "baseColorTexture" : {
                    "index" : 0
                },
                "metallicFactor" : 0,
                "roughnessFactor" : 0.5527864098548889
            }
        },
        {
            "doubleSided" : true,
            "name" : "RocciaMura_01_Mat",
            "pbrMetallicRoughness" : {
                "baseColorFactor" : [
                    0.2471817582845688,
                    0.2471817582845688,
                    0.2471817582845688,
                    1
                ],
                "metallicFactor" : 0,
                "roughnessFactor" : 0.5527864098548889
            }
        },
        {
            "doubleSided" : true,
            "name" : "RocciaMura_05_Mat",
            "pbrMetallicRoughness" : {
                "baseColorFactor" : [
                    0.3240000009536743,
                    0.3240000009536743,
                    0.3240000009536743,
                    1
                ],
                "metallicFactor" : 0,
                "roughnessFactor" : 0.5527864098548889
            }
        },
        {
            "doubleSided" : true,
            "name" : "Passerella_Legno_TopMura_TileMura",
            "pbrMetallicRoughness" : {
                "baseColorTexture" : {
                    "index" : 1
                },
                "metallicFactor" : 0,
                "roughnessFactor" : 0.5527864098548889
            }
        },
        {
            "doubleSided" : true,
            "name" : "RocciaMura_04_Mat",
            "pbrMetallicRoughness" : {
                "baseColorFactor" : [
                    0.14342418313026428,
                    0.14342418313026428,
                    0.14342418313026428,
                    1
                ],
                "metallicFactor" : 0,
                "roughnessFactor" : 0.5527864098548889
            }
        },
        {
            "doubleSided" : true,
            "name" : "RocciaMura_03_Mat",
            "pbrMetallicRoughness" : {
                "baseColorFactor" : [
                    0.2246226817369461,
                    0.2246226817369461,
                    0.2246226817369461,
                    1
                ],
                "metallicFactor" : 0,
                "roughnessFactor" : 0.5527864098548889
            }
        },
        {
            "doubleSided" : true,
            "name" : "Legno02_Mat",
            "pbrMetallicRoughness" : {
                "baseColorFactor" : [
                    0.421999990940094,
                    0.2647548019886017,
                    0.12997600436210632,
                    1
                ],
                "metallicFactor" : 0,
                "roughnessFactor" : 0.5527864098548889
            }
        }
    ],
    "meshes" : [
        {
            "name" : "Mesh.014",
            "primitives" : [
                {
                    "attributes" : {
                        "POSITION" : 0,
                        "NORMAL" : 1,
                        "TEXCOORD_0" : 2
                    },
                    "indices" : 3,
                    "material" : 0
                },
                {
                    "attributes" : {
                        "POSITION" : 4,
                        "NORMAL" : 5,
                        "TEXCOORD_0" : 6
                    },
                    "indices" : 7,
                    "material" : 1
                },
                {
                    "attributes" : {
                        "POSITION" : 8,
                        "NORMAL" : 9,
                        "TEXCOORD_0" : 10
                    },
                    "indices" : 11,
                    "material" : 2
                },
                {
                    "attributes" : {
                        "POSITION" : 12,
                        "NORMAL" : 13,
                        "TEXCOORD_0" : 14
                    },
                    "indices" : 15,
                    "material" : 3
                },
                {
                    "attributes" : {
                        "POSITION" : 16,
                        "NORMAL" : 17,
                        "TEXCOORD_0" : 18
                    },
                    "indices" : 19,
                    "material" : 4
                },
                {
                    "attributes" : {
                        "POSITION" : 20,
                        "NORMAL" : 21,
                        "TEXCOORD_0" : 22
                    },
                    "indices" : 23,
                    "material" : 5
                },
                {
                    "attributes" : {
                        "POSITION" : 24,
                        "NORMAL" : 25,
                        "TEXCOORD_0" : 26
                    },
                    "indices" : 27,
                    "material" : 6
                }
            ]
        }
    ],
    "textures" : [
        {
            "sampler" : 0,
            "source" : 0
        },
        {
            "sampler" : 0,
            "source" : 1
        }
    ],
    "images" : [
        {
            "bufferView" : 4,
            "mimeType" : "image/jpeg",
            "name" : "muro_02"
        },
        {
            "bufferView" : 17,
            "mimeType" : "image/jpeg",
            "name" : "assi_strisce"
        }
    ],
    "accessors" : [
        {
            "bufferView" : 0,
            "componentType" : 5126,
            "count" : 28,
            "max" : [
                783.75439453125,
                645.19580078125,
                0.0003304570564068854
            ],
            "min" : [
                -1405.0218505859375,
                -716.8880615234375,
                -1206.109375
            ],
            "type" : "VEC3"
        },
        {
            "bufferView" : 1,
            "componentType" : 5126,
            "count" : 28,
            "type" : "VEC3"
        },
        {
            "bufferView" : 2,
            "componentType" : 5126,
            "count" : 28,
            "type" : "VEC2"
        },
        {
            "bufferView" : 3,
            "componentType" : 5123,
            "count" : 48,
            "type" : "SCALAR"
        },
        {
            "bufferView" : 5,
            "componentType" : 5126,
            "count" : 394,
            "max" : [
                891.8427734375,
                669.96533203125,
                -926.6423950195312
            ],
            "min" : [
                -1502.3095703125,
                -811.7603759765625,
                -1337.8109130859375
            ],
            "type" : "VEC3"
        },
        {
            "bufferView" : 6,
            "componentType" : 5126,
            "count" : 394,
            "type" : "VEC3"
        },
        {
            "bufferView" : 7,
            "componentType" : 5126,
            "count" : 394,
            "type" : "VEC2"
        },
        {
            "bufferView" : 8,
            "componentType" : 5123,
            "count" : 738,
            "type" : "SCALAR"
        },
        {
            "bufferView" : 9,
            "componentType" : 5126,
            "count" : 883,
            "max" : [
                687.9267578125,
                659.04541015625,
                -1138.892578125
            ],
            "min" : [
                -1352.4141845703125,
                -656.8425903320312,
                -1278.120361328125
            ],
            "type" : "VEC3"
        },
        {
            "bufferView" : 10,
            "componentType" : 5126,
            "count" : 883,
            "type" : "VEC3"
        },
        {
            "bufferView" : 11,
            "componentType" : 5126,
            "count" : 883,
            "type" : "VEC2"
        },
        {
            "bufferView" : 12,
            "componentType" : 5123,
            "count" : 1575,
            "type" : "SCALAR"
        },
        {
            "bufferView" : 13,
            "componentType" : 5126,
            "count" : 14,
            "max" : [
                783.75439453125,
                645.19580078125,
                -1203.0391845703125
            ],
            "min" : [
                -1405.0218505859375,
                -716.8880615234375,
                -1206.109375
            ],
            "type" : "VEC3"
        },
        {
            "bufferView" : 14,
            "componentType" : 5126,
            "count" : 14,
            "type" : "VEC3"
        },
        {
            "bufferView" : 15,
            "componentType" : 5126,
            "count" : 14,
            "type" : "VEC2"
        },
        {
            "bufferView" : 16,
            "componentType" : 5123,
            "count" : 24,
            "type" : "SCALAR"
        },
        {
            "bufferView" : 18,
            "componentType" : 5126,
            "count" : 702,
            "max" : [
                845.70361328125,
                658.45556640625,
                0.0002465337165631354
            ],
            "min" : [
                -1453.5928955078125,
                -766.9407348632812,
                -1010.8750610351562
            ],
            "type" : "VEC3"
        },
        {
            "bufferView" : 19,
            "componentType" : 5126,
            "count" : 702,
            "type" : "VEC3"
        },
        {
            "bufferView" : 20,
            "componentType" : 5126,
            "count" : 702,
            "type" : "VEC2"
        },
        {
            "bufferView" : 21,
            "componentType" : 5123,
            "count" : 1092,
            "type" : "SCALAR"
        },
        {
            "bufferView" : 22,
            "componentType" : 5126,
            "count" : 1030,
            "max" : [
                845.70361328125,
                658.45556640625,
                0.00023127494205255061
            ],
            "min" : [
                -1453.5928955078125,
                -766.9407348632812,
                -959.3118896484375
            ],
            "type" : "VEC3"
        },
        {
            "bufferView" : 23,
            "componentType" : 5126,
            "count" : 1030,
            "type" : "VEC3"
        },
        {
            "bufferView" : 24,
            "componentType" : 5126,
            "count" : 1030,
            "type" : "VEC2"
        },
        {
            "bufferView" : 25,
            "componentType" : 5123,
            "count" : 1608,
            "type" : "SCALAR"
        },
        {
            "bufferView" : 26,
            "componentType" : 5126,
            "count" : 24,
            "max" : [
                -110.53955078125,
                602.63525390625,
                -1192.720947265625
            ],
            "min" : [
                -767.46923828125,
                -53.00927734375,
                -1206.364990234375
            ],
            "type" : "VEC3"
        },
        {
            "bufferView" : 27,
            "componentType" : 5126,
            "count" : 24,
            "type" : "VEC3"
        },
        {
            "bufferView" : 28,
            "componentType" : 5126,
            "count" : 24,
            "type" : "VEC2"
        },
        {
            "bufferView" : 29,
            "componentType" : 5123,
            "count" : 36,
            "type" : "SCALAR"
        }
    ],
    "bufferViews" : [
        {
            "buffer" : 0,
            "byteLength" : 336,
            "byteOffset" : 0
        },
        {
            "buffer" : 0,
            "byteLength" : 336,
            "byteOffset" : 336
        },
        {
            "buffer" : 0,
            "byteLength" : 224,
            "byteOffset" : 672
        },
        {
            "buffer" : 0,
            "byteLength" : 96,
            "byteOffset" : 896
        },
        {
            "buffer" : 0,
            "byteLength" : 95606,
            "byteOffset" : 992
        },
        {
            "buffer" : 0,
            "byteLength" : 4728,
            "byteOffset" : 96600
        },
        {
            "buffer" : 0,
            "byteLength" : 4728,
            "byteOffset" : 101328
        },
        {
            "buffer" : 0,
            "byteLength" : 3152,
            "byteOffset" : 106056
        },
        {
            "buffer" : 0,
            "byteLength" : 1476,
            "byteOffset" : 109208
        },
        {
            "buffer" : 0,
            "byteLength" : 10596,
            "byteOffset" : 110684
        },
        {
            "buffer" : 0,
            "byteLength" : 10596,
            "byteOffset" : 121280
        },
        {
            "buffer" : 0,
            "byteLength" : 7064,
            "byteOffset" : 131876
        },
        {
            "buffer" : 0,
            "byteLength" : 3150,
            "byteOffset" : 138940
        },
        {
            "buffer" : 0,
            "byteLength" : 168,
            "byteOffset" : 142092
        },
        {
            "buffer" : 0,
            "byteLength" : 168,
            "byteOffset" : 142260
        },
        {
            "buffer" : 0,
            "byteLength" : 112,
            "byteOffset" : 142428
        },
        {
            "buffer" : 0,
            "byteLength" : 48,
            "byteOffset" : 142540
        },
        {
            "buffer" : 0,
            "byteLength" : 238102,
            "byteOffset" : 142588
        },
        {
            "buffer" : 0,
            "byteLength" : 8424,
            "byteOffset" : 380692
        },
        {
            "buffer" : 0,
            "byteLength" : 8424,
            "byteOffset" : 389116
        },
        {
            "buffer" : 0,
            "byteLength" : 5616,
            "byteOffset" : 397540
        },
        {
            "buffer" : 0,
            "byteLength" : 2184,
            "byteOffset" : 403156
        },
        {
            "buffer" : 0,
            "byteLength" : 12360,
            "byteOffset" : 405340
        },
        {
            "buffer" : 0,
            "byteLength" : 12360,
            "byteOffset" : 417700
        },
        {
            "buffer" : 0,
            "byteLength" : 8240,
            "byteOffset" : 430060
        },
        {
            "buffer" : 0,
            "byteLength" : 3216,
            "byteOffset" : 438300
        },
        {
            "buffer" : 0,
            "byteLength" : 288,
            "byteOffset" : 441516
        },
        {
            "buffer" : 0,
            "byteLength" : 288,
            "byteOffset" : 441804
        },
        {
            "buffer" : 0,
            "byteLength" : 192,
            "byteOffset" : 442092
        },
        {
            "buffer" : 0,
            "byteLength" : 72,
            "byteOffset" : 442284
        }
    ],
    "samplers" : [
        {
            "magFilter" : 9729,
            "minFilter" : 9987
        }
    ],
    "buffers" : [
        {
            "byteLength" : 442356,
            "uri" : "data:application/octet-stream;base64,"
        }
    ]
}
