{
    "asset" : {
        "generator" : "Khronos glTF Blender I/O v1.6.16",
        "version" : "2.0"
    },
    "scene" : 0,
    "scenes" : [
        {
            "name" : "Scene",
            "nodes" : [
                0
            ]
        }
    ],
    "nodes" : [
        {
            "mesh" : 0,
            "name" : "wallDoor",
            "rotation" : [
                0.7071068286895752,
                0,
                0,
                0.7071068286895752
            ],
            "scale" : [
                0.009999999776482582,
                0.009999999776482582,
                0.009999999776482582
            ],
            "translation" : [
                2.384185791015625e-06,
                0,
                0
            ]
        }
    ],
    "materials" : [
        {
            "doubleSided" : true,
            "name" : "Mura_01_TileMat",
            "pbrMetallicRoughness" : {
                "baseColorTexture" : {
                    "index" : 0
                },
                "metallicFactor" : 0,
                "roughnessFactor" : 0.5527864098548889
            }
        },
        {
            "doubleSided" : true,
            "name" : "RocciaMura_01_Mat",
            "pbrMetallicRoughness" : {
                "baseColorFactor" : [
                    0.2471817582845688,
                    0.2471817582845688,
                    0.2471817582845688,
                    1
                ],
                "metallicFactor" : 0,
                "roughnessFactor" : 0.5527864098548889
            }
        },
        {
            "doubleSided" : true,
            "name" : "RocciaMura_05_Mat",
            "pbrMetallicRoughness" : {
                "baseColorFactor" : [
                    0.3240000009536743,
                    0.3240000009536743,
                    0.3240000009536743,
                    1
                ],
                "metallicFactor" : 0,
                "roughnessFactor" : 0.5527864098548889
            }
        },
        {
            "doubleSided" : true,
            "name" : "Passerella_Legno_TopMura_TileMura",
            "pbrMetallicRoughness" : {
                "baseColorTexture" : {
                    "index" : 1
                },
                "metallicFactor" : 0,
                "roughnessFactor" : 0.5527864098548889
            }
        },
        {
            "doubleSided" : true,
            "name" : "RocciaMura_02_Mat",
            "pbrMetallicRoughness" : {
                "baseColorFactor" : [
                    0.21138212084770203,
                    0.21138212084770203,
                    0.21138212084770203,
                    1
                ],
                "metallicFactor" : 0,
                "roughnessFactor" : 0.5527864098548889
            }
        },
        {
            "doubleSided" : true,
            "name" : "RocciaMura_04_Mat",
            "pbrMetallicRoughness" : {
                "baseColorFactor" : [
                    0.14342418313026428,
                    0.14342418313026428,
                    0.14342418313026428,
                    1
                ],
                "metallicFactor" : 0,
                "roughnessFactor" : 0.5527864098548889
            }
        },
        {
            "doubleSided" : true,
            "name" : "RocciaMura_03_Mat",
            "pbrMetallicRoughness" : {
                "baseColorFactor" : [
                    0.2246226817369461,
                    0.2246226817369461,
                    0.2246226817369461,
                    1
                ],
                "metallicFactor" : 0,
                "roughnessFactor" : 0.5527864098548889
            }
        },
        {
            "doubleSided" : true,
            "name" : "Legno02_Mat",
            "pbrMetallicRoughness" : {
                "baseColorFactor" : [
                    0.421999990940094,
                    0.2647548019886017,
                    0.12997600436210632,
                    1
                ],
                "metallicFactor" : 0,
                "roughnessFactor" : 0.5527864098548889
            }
        }
    ],
    "meshes" : [
        {
            "name" : "Mesh.018",
            "primitives" : [
                {
                    "attributes" : {
                        "POSITION" : 0,
                        "NORMAL" : 1,
                        "TEXCOORD_0" : 2
                    },
                    "indices" : 3,
                    "material" : 0
                },
                {
                    "attributes" : {
                        "POSITION" : 4,
                        "NORMAL" : 5,
                        "TEXCOORD_0" : 6
                    },
                    "indices" : 7,
                    "material" : 1
                },
                {
                    "attributes" : {
                        "POSITION" : 8,
                        "NORMAL" : 9,
                        "TEXCOORD_0" : 10
                    },
                    "indices" : 11,
                    "material" : 2
                },
                {
                    "attributes" : {
                        "POSITION" : 12,
                        "NORMAL" : 13,
                        "TEXCOORD_0" : 14
                    },
                    "indices" : 15,
                    "material" : 3
                },
                {
                    "attributes" : {
                        "POSITION" : 16,
                        "NORMAL" : 17,
                        "TEXCOORD_0" : 18
                    },
                    "indices" : 19,
                    "material" : 4
                },
                {
                    "attributes" : {
                        "POSITION" : 20,
                        "NORMAL" : 21,
                        "TEXCOORD_0" : 22
                    },
                    "indices" : 23,
                    "material" : 5
                },
                {
                    "attributes" : {
                        "POSITION" : 24,
                        "NORMAL" : 25,
                        "TEXCOORD_0" : 26
                    },
                    "indices" : 27,
                    "material" : 6
                },
                {
                    "attributes" : {
                        "POSITION" : 28,
                        "NORMAL" : 29,
                        "TEXCOORD_0" : 30
                    },
                    "indices" : 31,
                    "material" : 7
                }
            ]
        }
    ],
    "textures" : [
        {
            "sampler" : 0,
            "source" : 0
        },
        {
            "sampler" : 0,
            "source" : 1
        }
    ],
    "images" : [
        {
            "bufferView" : 4,
            "mimeType" : "image/jpeg",
            "name" : "muro_02"
        },
        {
            "bufferView" : 17,
            "mimeType" : "image/jpeg",
            "name" : "assi_strisce"
        }
    ],
    "accessors" : [
        {
            "bufferView" : 0,
            "componentType" : 5126,
            "count" : 28,
            "max" : [
                459.51654052734375,
                303.6340637207031,
                0.0002462051052134484
            ],
            "min" : [
                -459.1670837402344,
                -315.2819519042969,
                -1203.0391845703125
            ],
            "type" : "VEC3"
        },
        {
            "bufferView" : 1,
            "componentType" : 5126,
            "count" : 28,
            "type" : "VEC3"
        },
        {
            "bufferView" : 2,
            "componentType" : 5126,
            "count" : 28,
            "type" : "VEC2"
        },
        {
            "bufferView" : 3,
            "componentType" : 5123,
            "count" : 78,
            "type" : "SCALAR"
        },
        {
            "bufferView" : 5,
            "componentType" : 5126,
            "count" : 360,
            "max" : [
                579.6593627929688,
                328.1965637207031,
                3.024855136871338
            ],
            "min" : [
                -567.2564697265625,
                -346.3471984863281,
                -1334.74072265625
            ],
            "type" : "VEC3"
        },
        {
            "bufferView" : 6,
            "componentType" : 5126,
            "count" : 360,
            "type" : "VEC3"
        },
        {
            "bufferView" : 7,
            "componentType" : 5126,
            "count" : 360,
            "type" : "VEC2"
        },
        {
            "bufferView" : 8,
            "componentType" : 5123,
            "count" : 636,
            "type" : "SCALAR"
        },
        {
            "bufferView" : 9,
            "componentType" : 5126,
            "count" : 412,
            "max" : [
                363.68988037109375,
                316.5383605957031,
                -263.3510437011719
            ],
            "min" : [
                -363.34039306640625,
                -347.20947265625,
                -1275.0501708984375
            ],
            "type" : "VEC3"
        },
        {
            "bufferView" : 10,
            "componentType" : 5126,
            "count" : 412,
            "type" : "VEC3"
        },
        {
            "bufferView" : 11,
            "componentType" : 5126,
            "count" : 412,
            "type" : "VEC2"
        },
        {
            "bufferView" : 12,
            "componentType" : 5123,
            "count" : 744,
            "type" : "SCALAR"
        },
        {
            "bufferView" : 13,
            "componentType" : 5126,
            "count" : 10,
            "max" : [
                459.51654052734375,
                303.6340637207031,
                -1203.0391845703125
            ],
            "min" : [
                -459.1670837402344,
                -315.2819519042969,
                -1203.0391845703125
            ],
            "type" : "VEC3"
        },
        {
            "bufferView" : 14,
            "componentType" : 5126,
            "count" : 10,
            "type" : "VEC3"
        },
        {
            "bufferView" : 15,
            "componentType" : 5126,
            "count" : 10,
            "type" : "VEC2"
        },
        {
            "bufferView" : 16,
            "componentType" : 5123,
            "count" : 24,
            "type" : "SCALAR"
        },
        {
            "bufferView" : 18,
            "componentType" : 5126,
            "count" : 40,
            "max" : [
                138.57839965820312,
                -283.95361328125,
                -42.5975227355957
            ],
            "min" : [
                -144.30001831054688,
                -346.52001953125,
                -101.30602264404297
            ],
            "type" : "VEC3"
        },
        {
            "bufferView" : 19,
            "componentType" : 5126,
            "count" : 40,
            "type" : "VEC3"
        },
        {
            "bufferView" : 20,
            "componentType" : 5126,
            "count" : 40,
            "type" : "VEC2"
        },
        {
            "bufferView" : 21,
            "componentType" : 5123,
            "count" : 60,
            "type" : "SCALAR"
        },
        {
            "bufferView" : 22,
            "componentType" : 5126,
            "count" : 636,
            "max" : [
                518.3334350585938,
                313.1496887207031,
                3.024855136871338
            ],
            "min" : [
                -521.1163330078125,
                -350.17822265625,
                -1010.8750610351562
            ],
            "type" : "VEC3"
        },
        {
            "bufferView" : 23,
            "componentType" : 5126,
            "count" : 636,
            "type" : "VEC3"
        },
        {
            "bufferView" : 24,
            "componentType" : 5126,
            "count" : 636,
            "type" : "VEC2"
        },
        {
            "bufferView" : 25,
            "componentType" : 5123,
            "count" : 984,
            "type" : "SCALAR"
        },
        {
            "bufferView" : 26,
            "componentType" : 5126,
            "count" : 730,
            "max" : [
                527.1151123046875,
                313.1496887207031,
                0.0002462051052134484
            ],
            "min" : [
                -521.1163330078125,
                -325.0319519042969,
                -956.2418212890625
            ],
            "type" : "VEC3"
        },
        {
            "bufferView" : 27,
            "componentType" : 5126,
            "count" : 730,
            "type" : "VEC3"
        },
        {
            "bufferView" : 28,
            "componentType" : 5126,
            "count" : 730,
            "type" : "VEC2"
        },
        {
            "bufferView" : 29,
            "componentType" : 5123,
            "count" : 1122,
            "type" : "SCALAR"
        },
        {
            "bufferView" : 30,
            "componentType" : 5126,
            "count" : 12,
            "max" : [
                484.94525146484375,
                277.9504699707031,
                -1192.720947265625
            ],
            "min" : [
                434.08978271484375,
                -288.2096862792969,
                -1206.364990234375
            ],
            "type" : "VEC3"
        },
        {
            "bufferView" : 31,
            "componentType" : 5126,
            "count" : 12,
            "type" : "VEC3"
        },
        {
            "bufferView" : 32,
            "componentType" : 5126,
            "count" : 12,
            "type" : "VEC2"
        },
        {
            "bufferView" : 33,
            "componentType" : 5123,
            "count" : 18,
            "type" : "SCALAR"
        }
    ],
    "bufferViews" : [
        {
            "buffer" : 0,
            "byteLength" : 336,
            "byteOffset" : 0
        },
        {
            "buffer" : 0,
            "byteLength" : 336,
            "byteOffset" : 336
        },
        {
            "buffer" : 0,
            "byteLength" : 224,
            "byteOffset" : 672
        },
        {
            "buffer" : 0,
            "byteLength" : 156,
            "byteOffset" : 896
        },
        {
            "buffer" : 0,
            "byteLength" : 95606,
            "byteOffset" : 1052
        },
        {
            "buffer" : 0,
            "byteLength" : 4320,
            "byteOffset" : 96660
        },
        {
            "buffer" : 0,
            "byteLength" : 4320,
            "byteOffset" : 100980
        },
        {
            "buffer" : 0,
            "byteLength" : 2880,
            "byteOffset" : 105300
        },
        {
            "buffer" : 0,
            "byteLength" : 1272,
            "byteOffset" : 108180
        },
        {
            "buffer" : 0,
            "byteLength" : 4944,
            "byteOffset" : 109452
        },
        {
            "buffer" : 0,
            "byteLength" : 4944,
            "byteOffset" : 114396
        },
        {
            "buffer" : 0,
            "byteLength" : 3296,
            "byteOffset" : 119340
        },
        {
            "buffer" : 0,
            "byteLength" : 1488,
            "byteOffset" : 122636
        },
        {
            "buffer" : 0,
            "byteLength" : 120,
            "byteOffset" : 124124
        },
        {
            "buffer" : 0,
            "byteLength" : 120,
            "byteOffset" : 124244
        },
        {
            "buffer" : 0,
            "byteLength" : 80,
            "byteOffset" : 124364
        },
        {
            "buffer" : 0,
            "byteLength" : 48,
            "byteOffset" : 124444
        },
        {
            "buffer" : 0,
            "byteLength" : 238102,
            "byteOffset" : 124492
        },
        {
            "buffer" : 0,
            "byteLength" : 480,
            "byteOffset" : 362596
        },
        {
            "buffer" : 0,
            "byteLength" : 480,
            "byteOffset" : 363076
        },
        {
            "buffer" : 0,
            "byteLength" : 320,
            "byteOffset" : 363556
        },
        {
            "buffer" : 0,
            "byteLength" : 120,
            "byteOffset" : 363876
        },
        {
            "buffer" : 0,
            "byteLength" : 7632,
            "byteOffset" : 363996
        },
        {
            "buffer" : 0,
            "byteLength" : 7632,
            "byteOffset" : 371628
        },
        {
            "buffer" : 0,
            "byteLength" : 5088,
            "byteOffset" : 379260
        },
        {
            "buffer" : 0,
            "byteLength" : 1968,
            "byteOffset" : 384348
        },
        {
            "buffer" : 0,
            "byteLength" : 8760,
            "byteOffset" : 386316
        },
        {
            "buffer" : 0,
            "byteLength" : 8760,
            "byteOffset" : 395076
        },
        {
            "buffer" : 0,
            "byteLength" : 5840,
            "byteOffset" : 403836
        },
        {
            "buffer" : 0,
            "byteLength" : 2244,
            "byteOffset" : 409676
        },
        {
            "buffer" : 0,
            "byteLength" : 144,
            "byteOffset" : 411920
        },
        {
            "buffer" : 0,
            "byteLength" : 144,
            "byteOffset" : 412064
        },
        {
            "buffer" : 0,
            "byteLength" : 96,
            "byteOffset" : 412208
        },
        {
            "buffer" : 0,
            "byteLength" : 36,
            "byteOffset" : 412304
        }
    ],
    "samplers" : [
        {
            "magFilter" : 9729,
            "minFilter" : 9987
        }
    ],
    "buffers" : [
        {
            "byteLength" : 412340,
            "uri" : "data:application/octet-stream;base64,"
        }
    ]
}
