{
    "asset" : {
        "generator" : "Khronos glTF Blender I/O v1.6.16",
        "version" : "2.0"
    },
    "scene" : 0,
    "scenes" : [
        {
            "name" : "Scene",
            "nodes" : [
                0
            ]
        }
    ],
    "nodes" : [
        {
            "mesh" : 0,
            "name" : "wallRound90",
            "rotation" : [
                0.7071068286895752,
                0,
                0,
                0.7071068286895752
            ],
            "scale" : [
                0.009999999776482582,
                0.009999999776482582,
                0.009999999776482582
            ],
            "translation" : [
                2.384185791015625e-06,
                0,
                0
            ]
        }
    ],
    "materials" : [
        {
            "doubleSided" : true,
            "name" : "Mura_01_TileMat",
            "pbrMetallicRoughness" : {
                "baseColorTexture" : {
                    "index" : 0
                },
                "metallicFactor" : 0,
                "roughnessFactor" : 0.5527864098548889
            }
        },
        {
            "doubleSided" : true,
            "name" : "RocciaMura_01_Mat",
            "pbrMetallicRoughness" : {
                "baseColorFactor" : [
                    0.2471817582845688,
                    0.2471817582845688,
                    0.2471817582845688,
                    1
                ],
                "metallicFactor" : 0,
                "roughnessFactor" : 0.5527864098548889
            }
        },
        {
            "doubleSided" : true,
            "name" : "RocciaMura_05_Mat",
            "pbrMetallicRoughness" : {
                "baseColorFactor" : [
                    0.3240000009536743,
                    0.3240000009536743,
                    0.3240000009536743,
                    1
                ],
                "metallicFactor" : 0,
                "roughnessFactor" : 0.5527864098548889
            }
        },
        {
            "doubleSided" : true,
            "name" : "Passerella_Legno_TopMura_TileMura",
            "pbrMetallicRoughness" : {
                "baseColorTexture" : {
                    "index" : 1
                },
                "metallicFactor" : 0,
                "roughnessFactor" : 0.5527864098548889
            }
        },
        {
            "doubleSided" : true,
            "name" : "RocciaMura_04_Mat",
            "pbrMetallicRoughness" : {
                "baseColorFactor" : [
                    0.14342418313026428,
                    0.14342418313026428,
                    0.14342418313026428,
                    1
                ],
                "metallicFactor" : 0,
                "roughnessFactor" : 0.5527864098548889
            }
        },
        {
            "doubleSided" : true,
            "name" : "RocciaMura_03_Mat",
            "pbrMetallicRoughness" : {
                "baseColorFactor" : [
                    0.2246226817369461,
                    0.2246226817369461,
                    0.2246226817369461,
                    1
                ],
                "metallicFactor" : 0,
                "roughnessFactor" : 0.5527864098548889
            }
        },
        {
            "doubleSided" : true,
            "name" : "Legno02_Mat",
            "pbrMetallicRoughness" : {
                "baseColorFactor" : [
                    0.421999990940094,
                    0.2647548019886017,
                    0.12997600436210632,
                    1
                ],
                "metallicFactor" : 0,
                "roughnessFactor" : 0.5527864098548889
            }
        }
    ],
    "meshes" : [
        {
            "name" : "Mesh.015",
            "primitives" : [
                {
                    "attributes" : {
                        "POSITION" : 0,
                        "NORMAL" : 1,
                        "TEXCOORD_0" : 2
                    },
                    "indices" : 3,
                    "material" : 0
                },
                {
                    "attributes" : {
                        "POSITION" : 4,
                        "NORMAL" : 5,
                        "TEXCOORD_0" : 6
                    },
                    "indices" : 7,
                    "material" : 1
                },
                {
                    "attributes" : {
                        "POSITION" : 8,
                        "NORMAL" : 9,
                        "TEXCOORD_0" : 10
                    },
                    "indices" : 11,
                    "material" : 2
                },
                {
                    "attributes" : {
                        "POSITION" : 12,
                        "NORMAL" : 13,
                        "TEXCOORD_0" : 14
                    },
                    "indices" : 15,
                    "material" : 3
                },
                {
                    "attributes" : {
                        "POSITION" : 16,
                        "NORMAL" : 17,
                        "TEXCOORD_0" : 18
                    },
                    "indices" : 19,
                    "material" : 4
                },
                {
                    "attributes" : {
                        "POSITION" : 20,
                        "NORMAL" : 21,
                        "TEXCOORD_0" : 22
                    },
                    "indices" : 23,
                    "material" : 5
                },
                {
                    "attributes" : {
                        "POSITION" : 24,
                        "NORMAL" : 25,
                        "TEXCOORD_0" : 26
                    },
                    "indices" : 27,
                    "material" : 6
                }
            ]
        }
    ],
    "textures" : [
        {
            "sampler" : 0,
            "source" : 0
        },
        {
            "sampler" : 0,
            "source" : 1
        }
    ],
    "images" : [
        {
            "bufferView" : 4,
            "mimeType" : "image/jpeg",
            "name" : "muro_02"
        },
        {
            "bufferView" : 17,
            "mimeType" : "image/jpeg",
            "name" : "assi_strisce"
        }
    ],
    "accessors" : [
        {
            "bufferView" : 0,
            "componentType" : 5126,
            "count" : 40,
            "max" : [
                309.7453918457031,
                309.3955383300781,
                0.00024595324066467583
            ],
            "min" : [
                -1503.140380859375,
                -1508.3499755859375,
                -1203.039306640625
            ],
            "type" : "VEC3"
        },
        {
            "bufferView" : 1,
            "componentType" : 5126,
            "count" : 40,
            "type" : "VEC3"
        },
        {
            "bufferView" : 2,
            "componentType" : 5126,
            "count" : 40,
            "type" : "VEC2"
        },
        {
            "bufferView" : 3,
            "componentType" : 5123,
            "count" : 72,
            "type" : "SCALAR"
        },
        {
            "bufferView" : 5,
            "componentType" : 5126,
            "count" : 496,
            "max" : [
                337.5410461425781,
                333.9580383300781,
                -926.642333984375
            ],
            "min" : [
                -1611.229736328125,
                -1616.4393310546875,
                -1334.740966796875
            ],
            "type" : "VEC3"
        },
        {
            "bufferView" : 6,
            "componentType" : 5126,
            "count" : 496,
            "type" : "VEC3"
        },
        {
            "bufferView" : 7,
            "componentType" : 5126,
            "count" : 496,
            "type" : "VEC2"
        },
        {
            "bufferView" : 8,
            "componentType" : 5123,
            "count" : 936,
            "type" : "SCALAR"
        },
        {
            "bufferView" : 9,
            "componentType" : 5126,
            "count" : 1052,
            "max" : [
                325.8808898925781,
                322.2998352050781,
                -1138.8927001953125
            ],
            "min" : [
                -1407.3135986328125,
                -1412.5233154296875,
                -1275.05029296875
            ],
            "type" : "VEC3"
        },
        {
            "bufferView" : 10,
            "componentType" : 5126,
            "count" : 1052,
            "type" : "VEC3"
        },
        {
            "bufferView" : 11,
            "componentType" : 5126,
            "count" : 1052,
            "type" : "VEC2"
        },
        {
            "bufferView" : 12,
            "componentType" : 5123,
            "count" : 1920,
            "type" : "SCALAR"
        },
        {
            "bufferView" : 13,
            "componentType" : 5126,
            "count" : 20,
            "max" : [
                309.7453918457031,
                309.3955383300781,
                -1203.039306640625
            ],
            "min" : [
                -1503.140380859375,
                -1508.3499755859375,
                -1203.039306640625
            ],
            "type" : "VEC3"
        },
        {
            "bufferView" : 14,
            "componentType" : 5126,
            "count" : 20,
            "type" : "VEC3"
        },
        {
            "bufferView" : 15,
            "componentType" : 5126,
            "count" : 20,
            "type" : "VEC2"
        },
        {
            "bufferView" : 16,
            "componentType" : 5123,
            "count" : 36,
            "type" : "SCALAR"
        },
        {
            "bufferView" : 18,
            "componentType" : 5126,
            "count" : 1138,
            "max" : [
                317.6985168457031,
                318.9111633300781,
                0.00026121202972717583
            ],
            "min" : [
                -1565.089599609375,
                -1570.2991943359375,
                -1010.8750610351562
            ],
            "type" : "VEC3"
        },
        {
            "bufferView" : 19,
            "componentType" : 5126,
            "count" : 1138,
            "type" : "VEC3"
        },
        {
            "bufferView" : 20,
            "componentType" : 5126,
            "count" : 1138,
            "type" : "VEC2"
        },
        {
            "bufferView" : 21,
            "componentType" : 5123,
            "count" : 1800,
            "type" : "SCALAR"
        },
        {
            "bufferView" : 22,
            "componentType" : 5126,
            "count" : 1274,
            "max" : [
                317.6985168457031,
                318.9111633300781,
                0.00024595324066467583
            ],
            "min" : [
                -1565.089599609375,
                -1570.2991943359375,
                -956.2418212890625
            ],
            "type" : "VEC3"
        },
        {
            "bufferView" : 23,
            "componentType" : 5126,
            "count" : 1274,
            "type" : "VEC3"
        },
        {
            "bufferView" : 24,
            "componentType" : 5126,
            "count" : 1274,
            "type" : "VEC2"
        },
        {
            "bufferView" : 25,
            "componentType" : 5123,
            "count" : 1986,
            "type" : "SCALAR"
        },
        {
            "bufferView" : 26,
            "componentType" : 5126,
            "count" : 36,
            "max" : [
                267.1848449707031,
                283.7119445800781,
                -1192.7210693359375
            ],
            "min" : [
                -609.8834838867188,
                -610.0498046875,
                -1206.3651123046875
            ],
            "type" : "VEC3"
        },
        {
            "bufferView" : 27,
            "componentType" : 5126,
            "count" : 36,
            "type" : "VEC3"
        },
        {
            "bufferView" : 28,
            "componentType" : 5126,
            "count" : 36,
            "type" : "VEC2"
        },
        {
            "bufferView" : 29,
            "componentType" : 5123,
            "count" : 54,
            "type" : "SCALAR"
        }
    ],
    "bufferViews" : [
        {
            "buffer" : 0,
            "byteLength" : 480,
            "byteOffset" : 0
        },
        {
            "buffer" : 0,
            "byteLength" : 480,
            "byteOffset" : 480
        },
        {
            "buffer" : 0,
            "byteLength" : 320,
            "byteOffset" : 960
        },
        {
            "buffer" : 0,
            "byteLength" : 144,
            "byteOffset" : 1280
        },
        {
            "buffer" : 0,
            "byteLength" : 95606,
            "byteOffset" : 1424
        },
        {
            "buffer" : 0,
            "byteLength" : 5952,
            "byteOffset" : 97032
        },
        {
            "buffer" : 0,
            "byteLength" : 5952,
            "byteOffset" : 102984
        },
        {
            "buffer" : 0,
            "byteLength" : 3968,
            "byteOffset" : 108936
        },
        {
            "buffer" : 0,
            "byteLength" : 1872,
            "byteOffset" : 112904
        },
        {
            "buffer" : 0,
            "byteLength" : 12624,
            "byteOffset" : 114776
        },
        {
            "buffer" : 0,
            "byteLength" : 12624,
            "byteOffset" : 127400
        },
        {
            "buffer" : 0,
            "byteLength" : 8416,
            "byteOffset" : 140024
        },
        {
            "buffer" : 0,
            "byteLength" : 3840,
            "byteOffset" : 148440
        },
        {
            "buffer" : 0,
            "byteLength" : 240,
            "byteOffset" : 152280
        },
        {
            "buffer" : 0,
            "byteLength" : 240,
            "byteOffset" : 152520
        },
        {
            "buffer" : 0,
            "byteLength" : 160,
            "byteOffset" : 152760
        },
        {
            "buffer" : 0,
            "byteLength" : 72,
            "byteOffset" : 152920
        },
        {
            "buffer" : 0,
            "byteLength" : 238102,
            "byteOffset" : 152992
        },
        {
            "buffer" : 0,
            "byteLength" : 13656,
            "byteOffset" : 391096
        },
        {
            "buffer" : 0,
            "byteLength" : 13656,
            "byteOffset" : 404752
        },
        {
            "buffer" : 0,
            "byteLength" : 9104,
            "byteOffset" : 418408
        },
        {
            "buffer" : 0,
            "byteLength" : 3600,
            "byteOffset" : 427512
        },
        {
            "buffer" : 0,
            "byteLength" : 15288,
            "byteOffset" : 431112
        },
        {
            "buffer" : 0,
            "byteLength" : 15288,
            "byteOffset" : 446400
        },
        {
            "buffer" : 0,
            "byteLength" : 10192,
            "byteOffset" : 461688
        },
        {
            "buffer" : 0,
            "byteLength" : 3972,
            "byteOffset" : 471880
        },
        {
            "buffer" : 0,
            "byteLength" : 432,
            "byteOffset" : 475852
        },
        {
            "buffer" : 0,
            "byteLength" : 432,
            "byteOffset" : 476284
        },
        {
            "buffer" : 0,
            "byteLength" : 288,
            "byteOffset" : 476716
        },
        {
            "buffer" : 0,
            "byteLength" : 108,
            "byteOffset" : 477004
        }
    ],
    "samplers" : [
        {
            "magFilter" : 9729,
            "minFilter" : 9987
        }
    ],
    "buffers" : [
        {
            "byteLength" : 477112,
            "uri" : "data:application/octet-stream;base64,"
        }
    ]
}
