{
    "asset" : {
        "generator" : "Khronos glTF Blender I/O v1.6.16",
        "version" : "2.0"
    },
    "scene" : 0,
    "scenes" : [
        {
            "name" : "Scene",
            "nodes" : [
                0
            ]
        }
    ],
    "nodes" : [
        {
            "mesh" : 0,
            "name" : "wall2",
            "rotation" : [
                0.7071068286895752,
                0,
                0,
                0.7071068286895752
            ],
            "scale" : [
                0.009999999776482582,
                0.009999999776482582,
                0.009999999776482582
            ],
            "translation" : [
                2.384185791015625e-06,
                0,
                0
            ]
        }
    ],
    "materials" : [
        {
            "doubleSided" : true,
            "name" : "Mura_01_TileMat",
            "pbrMetallicRoughness" : {
                "baseColorTexture" : {
                    "index" : 0
                },
                "metallicFactor" : 0,
                "roughnessFactor" : 0.5527864098548889
            }
        },
        {
            "doubleSided" : true,
            "name" : "RocciaMura_01_Mat",
            "pbrMetallicRoughness" : {
                "baseColorFactor" : [
                    0.2471817582845688,
                    0.2471817582845688,
                    0.2471817582845688,
                    1
                ],
                "metallicFactor" : 0,
                "roughnessFactor" : 0.5527864098548889
            }
        },
        {
            "doubleSided" : true,
            "name" : "RocciaMura_05_Mat",
            "pbrMetallicRoughness" : {
                "baseColorFactor" : [
                    0.3240000009536743,
                    0.3240000009536743,
                    0.3240000009536743,
                    1
                ],
                "metallicFactor" : 0,
                "roughnessFactor" : 0.5527864098548889
            }
        },
        {
            "doubleSided" : true,
            "name" : "Passerella_Legno_TopMura_TileMura",
            "pbrMetallicRoughness" : {
                "baseColorTexture" : {
                    "index" : 1
                },
                "metallicFactor" : 0,
                "roughnessFactor" : 0.5527864098548889
            }
        },
        {
            "doubleSided" : true,
            "name" : "RocciaMura_04_Mat",
            "pbrMetallicRoughness" : {
                "baseColorFactor" : [
                    0.14342418313026428,
                    0.14342418313026428,
                    0.14342418313026428,
                    1
                ],
                "metallicFactor" : 0,
                "roughnessFactor" : 0.5527864098548889
            }
        },
        {
            "doubleSided" : true,
            "name" : "RocciaMura_03_Mat",
            "pbrMetallicRoughness" : {
                "baseColorFactor" : [
                    0.2246226817369461,
                    0.2246226817369461,
                    0.2246226817369461,
                    1
                ],
                "metallicFactor" : 0,
                "roughnessFactor" : 0.5527864098548889
            }
        },
        {
            "doubleSided" : true,
            "name" : "Legno02_Mat",
            "pbrMetallicRoughness" : {
                "baseColorFactor" : [
                    0.421999990940094,
                    0.2647548019886017,
                    0.12997600436210632,
                    1
                ],
                "metallicFactor" : 0,
                "roughnessFactor" : 0.5527864098548889
            }
        }
    ],
    "meshes" : [
        {
            "name" : "Mesh.016",
            "primitives" : [
                {
                    "attributes" : {
                        "POSITION" : 0,
                        "NORMAL" : 1,
                        "TEXCOORD_0" : 2
                    },
                    "indices" : 3,
                    "material" : 0
                },
                {
                    "attributes" : {
                        "POSITION" : 4,
                        "NORMAL" : 5,
                        "TEXCOORD_0" : 6
                    },
                    "indices" : 7,
                    "material" : 1
                },
                {
                    "attributes" : {
                        "POSITION" : 8,
                        "NORMAL" : 9,
                        "TEXCOORD_0" : 10
                    },
                    "indices" : 11,
                    "material" : 2
                },
                {
                    "attributes" : {
                        "POSITION" : 12,
                        "NORMAL" : 13,
                        "TEXCOORD_0" : 14
                    },
                    "indices" : 15,
                    "material" : 3
                },
                {
                    "attributes" : {
                        "POSITION" : 16,
                        "NORMAL" : 17,
                        "TEXCOORD_0" : 18
                    },
                    "indices" : 19,
                    "material" : 4
                },
                {
                    "attributes" : {
                        "POSITION" : 20,
                        "NORMAL" : 21,
                        "TEXCOORD_0" : 22
                    },
                    "indices" : 23,
                    "material" : 5
                },
                {
                    "attributes" : {
                        "POSITION" : 24,
                        "NORMAL" : 25,
                        "TEXCOORD_0" : 26
                    },
                    "indices" : 27,
                    "material" : 6
                }
            ]
        }
    ],
    "textures" : [
        {
            "sampler" : 0,
            "source" : 0
        },
        {
            "sampler" : 0,
            "source" : 1
        }
    ],
    "images" : [
        {
            "bufferView" : 4,
            "mimeType" : "image/jpeg",
            "name" : "muro_02"
        },
        {
            "bufferView" : 17,
            "mimeType" : "image/jpeg",
            "name" : "assi_strisce"
        }
    ],
    "accessors" : [
        {
            "bufferView" : 0,
            "componentType" : 5126,
            "count" : 8,
            "max" : [
                459.51654052734375,
                303.6340637207031,
                0.0002462051052134484
            ],
            "min" : [
                -459.1670837402344,
                -315.2819519042969,
                -1203.0391845703125
            ],
            "type" : "VEC3"
        },
        {
            "bufferView" : 1,
            "componentType" : 5126,
            "count" : 8,
            "type" : "VEC3"
        },
        {
            "bufferView" : 2,
            "componentType" : 5126,
            "count" : 8,
            "type" : "VEC2"
        },
        {
            "bufferView" : 3,
            "componentType" : 5123,
            "count" : 12,
            "type" : "SCALAR"
        },
        {
            "bufferView" : 5,
            "componentType" : 5126,
            "count" : 192,
            "max" : [
                579.6593627929688,
                328.1965637207031,
                -926.6423950195312
            ],
            "min" : [
                -567.2564697265625,
                -346.3471984863281,
                -1334.74072265625
            ],
            "type" : "VEC3"
        },
        {
            "bufferView" : 6,
            "componentType" : 5126,
            "count" : 192,
            "type" : "VEC3"
        },
        {
            "bufferView" : 7,
            "componentType" : 5126,
            "count" : 192,
            "type" : "VEC2"
        },
        {
            "bufferView" : 8,
            "componentType" : 5123,
            "count" : 360,
            "type" : "SCALAR"
        },
        {
            "bufferView" : 9,
            "componentType" : 5126,
            "count" : 364,
            "max" : [
                363.68988037109375,
                316.5383605957031,
                -1138.892578125
            ],
            "min" : [
                -363.34039306640625,
                -334.5690612792969,
                -1275.0501708984375
            ],
            "type" : "VEC3"
        },
        {
            "bufferView" : 10,
            "componentType" : 5126,
            "count" : 364,
            "type" : "VEC3"
        },
        {
            "bufferView" : 11,
            "componentType" : 5126,
            "count" : 364,
            "type" : "VEC2"
        },
        {
            "bufferView" : 12,
            "componentType" : 5123,
            "count" : 672,
            "type" : "SCALAR"
        },
        {
            "bufferView" : 13,
            "componentType" : 5126,
            "count" : 4,
            "max" : [
                459.51654052734375,
                303.6340637207031,
                -1203.0391845703125
            ],
            "min" : [
                -459.1670837402344,
                -315.2819519042969,
                -1203.0391845703125
            ],
            "type" : "VEC3"
        },
        {
            "bufferView" : 14,
            "componentType" : 5126,
            "count" : 4,
            "type" : "VEC3"
        },
        {
            "bufferView" : 15,
            "componentType" : 5126,
            "count" : 4,
            "type" : "VEC2"
        },
        {
            "bufferView" : 16,
            "componentType" : 5123,
            "count" : 6,
            "type" : "SCALAR"
        },
        {
            "bufferView" : 18,
            "componentType" : 5126,
            "count" : 572,
            "max" : [
                518.3334350585938,
                313.1496887207031,
                0.0002614638942759484
            ],
            "min" : [
                -521.1163330078125,
                -324.6413269042969,
                -1010.8750610351562
            ],
            "type" : "VEC3"
        },
        {
            "bufferView" : 19,
            "componentType" : 5126,
            "count" : 572,
            "type" : "VEC3"
        },
        {
            "bufferView" : 20,
            "componentType" : 5126,
            "count" : 572,
            "type" : "VEC2"
        },
        {
            "bufferView" : 21,
            "componentType" : 5123,
            "count" : 882,
            "type" : "SCALAR"
        },
        {
            "bufferView" : 22,
            "componentType" : 5126,
            "count" : 730,
            "max" : [
                527.1151123046875,
                313.1496887207031,
                0.0002462051052134484
            ],
            "min" : [
                -521.1163330078125,
                -325.0319519042969,
                -956.2418212890625
            ],
            "type" : "VEC3"
        },
        {
            "bufferView" : 23,
            "componentType" : 5126,
            "count" : 730,
            "type" : "VEC3"
        },
        {
            "bufferView" : 24,
            "componentType" : 5126,
            "count" : 730,
            "type" : "VEC2"
        },
        {
            "bufferView" : 25,
            "componentType" : 5123,
            "count" : 1122,
            "type" : "SCALAR"
        },
        {
            "bufferView" : 26,
            "componentType" : 5126,
            "count" : 12,
            "max" : [
                484.94525146484375,
                277.9504699707031,
                -1192.720947265625
            ],
            "min" : [
                434.08978271484375,
                -288.2096862792969,
                -1206.364990234375
            ],
            "type" : "VEC3"
        },
        {
            "bufferView" : 27,
            "componentType" : 5126,
            "count" : 12,
            "type" : "VEC3"
        },
        {
            "bufferView" : 28,
            "componentType" : 5126,
            "count" : 12,
            "type" : "VEC2"
        },
        {
            "bufferView" : 29,
            "componentType" : 5123,
            "count" : 18,
            "type" : "SCALAR"
        }
    ],
    "bufferViews" : [
        {
            "buffer" : 0,
            "byteLength" : 96,
            "byteOffset" : 0
        },
        {
            "buffer" : 0,
            "byteLength" : 96,
            "byteOffset" : 96
        },
        {
            "buffer" : 0,
            "byteLength" : 64,
            "byteOffset" : 192
        },
        {
            "buffer" : 0,
            "byteLength" : 24,
            "byteOffset" : 256
        },
        {
            "buffer" : 0,
            "byteLength" : 95606,
            "byteOffset" : 280
        },
        {
            "buffer" : 0,
            "byteLength" : 2304,
            "byteOffset" : 95888
        },
        {
            "buffer" : 0,
            "byteLength" : 2304,
            "byteOffset" : 98192
        },
        {
            "buffer" : 0,
            "byteLength" : 1536,
            "byteOffset" : 100496
        },
        {
            "buffer" : 0,
            "byteLength" : 720,
            "byteOffset" : 102032
        },
        {
            "buffer" : 0,
            "byteLength" : 4368,
            "byteOffset" : 102752
        },
        {
            "buffer" : 0,
            "byteLength" : 4368,
            "byteOffset" : 107120
        },
        {
            "buffer" : 0,
            "byteLength" : 2912,
            "byteOffset" : 111488
        },
        {
            "buffer" : 0,
            "byteLength" : 1344,
            "byteOffset" : 114400
        },
        {
            "buffer" : 0,
            "byteLength" : 48,
            "byteOffset" : 115744
        },
        {
            "buffer" : 0,
            "byteLength" : 48,
            "byteOffset" : 115792
        },
        {
            "buffer" : 0,
            "byteLength" : 32,
            "byteOffset" : 115840
        },
        {
            "buffer" : 0,
            "byteLength" : 12,
            "byteOffset" : 115872
        },
        {
            "buffer" : 0,
            "byteLength" : 238102,
            "byteOffset" : 115884
        },
        {
            "buffer" : 0,
            "byteLength" : 6864,
            "byteOffset" : 353988
        },
        {
            "buffer" : 0,
            "byteLength" : 6864,
            "byteOffset" : 360852
        },
        {
            "buffer" : 0,
            "byteLength" : 4576,
            "byteOffset" : 367716
        },
        {
            "buffer" : 0,
            "byteLength" : 1764,
            "byteOffset" : 372292
        },
        {
            "buffer" : 0,
            "byteLength" : 8760,
            "byteOffset" : 374056
        },
        {
            "buffer" : 0,
            "byteLength" : 8760,
            "byteOffset" : 382816
        },
        {
            "buffer" : 0,
            "byteLength" : 5840,
            "byteOffset" : 391576
        },
        {
            "buffer" : 0,
            "byteLength" : 2244,
            "byteOffset" : 397416
        },
        {
            "buffer" : 0,
            "byteLength" : 144,
            "byteOffset" : 399660
        },
        {
            "buffer" : 0,
            "byteLength" : 144,
            "byteOffset" : 399804
        },
        {
            "buffer" : 0,
            "byteLength" : 96,
            "byteOffset" : 399948
        },
        {
            "buffer" : 0,
            "byteLength" : 36,
            "byteOffset" : 400044
        }
    ],
    "samplers" : [
        {
            "magFilter" : 9729,
            "minFilter" : 9987
        }
    ],
    "buffers" : [
        {
            "byteLength" : 400080,
            "uri" : "data:application/octet-stream;base64,"
        }
    ]
}
